<svg width="16" height="16" viewBox="0 0 16 16" fill="none" xmlns="http://www.w3.org/2000/svg">
<path d="M7.6019 0.0100623C3.34524 0.21047 -0.0127895 3.72963 3.66194e-05 7.95983C0.00220667 9.20499 0.300323 10.4318 0.869805 11.5391L0.0216806 15.6282C0.0113323 15.6793 0.0140419 15.7323 0.0295588 15.7821C0.0450757 15.8319 0.0728989 15.8769 0.110456 15.9131C0.148012 15.9493 0.19409 15.9755 0.244428 15.9892C0.294765 16.0028 0.347738 16.0036 0.398447 15.9914L4.43385 15.0422C5.50283 15.5699 6.67604 15.8525 7.86804 15.8695C12.2185 15.936 15.8451 12.5067 15.9805 8.1899C16.1264 3.56048 12.2794 -0.211989 7.6019 0.00926062V0.0100623ZM12.4173 12.3287C11.8358 12.9084 11.1456 13.3675 10.3862 13.6798C9.62688 13.992 8.81334 14.1513 7.99229 14.1484C7.02643 14.1505 6.07323 13.9288 5.20743 13.5007L4.64548 13.2225L2.17085 13.8045L2.69191 11.2946L2.41455 10.7559C1.96432 9.88456 1.73112 8.91738 1.73476 7.93658C1.73476 6.27721 2.38569 4.71643 3.56729 3.54365C4.74504 2.37784 6.33512 1.72366 7.99229 1.72315C9.66449 1.72315 11.2357 2.36926 12.4173 3.54285C12.9995 4.11647 13.4615 4.80042 13.7763 5.5547C14.0911 6.30898 14.2523 7.11845 14.2506 7.93578C14.2506 9.58072 13.5893 11.1663 12.4173 12.3295V12.3287Z" fill="#07135E"/>
<path d="M11.8714 9.65608L10.3234 9.21518C10.2236 9.18625 10.1177 9.18483 10.0171 9.21107C9.91652 9.23732 9.82487 9.29025 9.75187 9.36428L9.3735 9.74746C9.29504 9.82649 9.19512 9.88077 9.08611 9.90357C8.97711 9.92637 8.86381 9.91669 8.76025 9.87572C8.02836 9.58153 6.48763 8.22196 6.09403 7.54138C6.03843 7.44538 6.01298 7.33488 6.02098 7.22424C6.02899 7.11359 6.07008 7.00791 6.13892 6.92092L6.46919 6.49605C6.53277 6.41465 6.57301 6.31748 6.58557 6.21495C6.59814 6.11243 6.58257 6.00842 6.54054 5.91407L5.88961 4.45189C5.8528 4.37017 5.79753 4.2981 5.72815 4.24134C5.65877 4.18459 5.57718 4.1447 5.48978 4.12481C5.40238 4.10492 5.31155 4.10558 5.22445 4.12672C5.13735 4.14787 5.05633 4.18893 4.98778 4.24668C4.5557 4.60982 4.04266 5.16054 3.98093 5.77218C3.87111 6.84877 4.33605 8.20593 6.09483 9.83644C8.12696 11.7195 9.75507 11.9688 10.814 11.7131C11.4152 11.5688 11.8962 10.9892 12.1984 10.5154C12.2468 10.4402 12.2768 10.3546 12.286 10.2657C12.2953 10.1767 12.2835 10.0868 12.2517 10.0032C12.2199 9.91965 12.1689 9.84469 12.1029 9.7844C12.0368 9.7241 11.9575 9.68015 11.8714 9.65608Z" fill="#07135E"/>
</svg>
