<svg width="83" height="74" viewBox="0 0 83 74" fill="none" xmlns="http://www.w3.org/2000/svg">
<path fill-rule="evenodd" clip-rule="evenodd" d="M39.0556 6.27549e-07C43.0973 -0.00105175 47.0281 1.32151 50.2472 3.7655C53.4662 6.20949 55.7964 9.64042 56.8813 13.5338L57.0951 14.3766L64.7829 12.4567C65.3448 12.3168 65.9299 12.2972 66.4999 12.3992C67.0699 12.5012 67.612 12.7224 68.0905 13.0485C68.5691 13.3745 68.9734 13.7979 69.2769 14.2911C69.5804 14.7842 69.7764 15.3359 69.8519 15.91L69.8889 16.4444V23.8856C72.2078 26.1067 74.1073 28.7277 75.4964 31.6227L76.0638 32.8889H78.1111C79.1181 32.889 80.0899 33.2587 80.8424 33.9278C81.5949 34.597 82.0756 35.519 82.1934 36.519L82.2222 37V49.3333C82.2223 50.01 82.0554 50.6762 81.7363 51.2729C81.4171 51.8696 80.9557 52.3782 80.3928 52.7538L79.9488 53.0087L75.147 55.4137C73.1846 59.2191 70.3365 62.4972 66.8426 64.972L65.7778 65.6873V69.8889C65.7776 70.8958 65.408 71.8677 64.7388 72.6202C64.0697 73.3727 63.1477 73.8534 62.1477 73.9712L61.6667 74H49.3333C48.3264 73.9999 47.3545 73.6302 46.602 72.9611C45.8495 72.2919 45.3688 71.3699 45.251 70.3699L45.2222 69.8889H41.1111C41.111 70.8958 40.7413 71.8677 40.0722 72.6202C39.4031 73.3727 38.481 73.8534 37.481 73.9712L37 74H24.6667C23.6597 73.9999 22.6878 73.6302 21.9354 72.9611C21.1829 72.2919 20.7021 71.3699 20.5843 70.3699L20.5556 69.8889V65.6873C17.5844 63.79 15.0181 61.3234 13.0044 58.4299C10.9907 55.5363 9.56939 52.2729 8.82244 48.8277C6.39763 48.1072 4.25299 46.6586 2.67924 44.6782C1.1055 42.6978 0.178762 40.2813 0.0246668 37.7564L0 37V34.9444C0.00116224 33.8966 0.402392 32.8888 1.12171 32.1268C1.84103 31.3649 2.82414 30.9064 3.87018 30.845C4.91622 30.7836 5.94623 31.1239 6.74976 31.7964C7.55329 32.469 8.06969 33.4229 8.19344 34.4634L8.22222 34.9444V37C8.2277 37.6139 8.35104 38.1826 8.59222 38.7061C9.21873 35.0046 10.6181 31.4766 12.6993 28.3521C14.7804 25.2276 17.4965 22.5766 20.6707 20.572C20.379 17.984 20.637 15.3636 21.4279 12.8821C22.2187 10.4007 23.5246 8.11427 25.2601 6.17236C26.9956 4.23044 29.1215 2.67683 31.4988 1.61318C33.8761 0.549536 36.4512 -0.000180564 39.0556 6.27549e-07ZM57.5556 32.8889C56.4652 32.8889 55.4195 33.322 54.6486 34.093C53.8776 34.864 53.4444 35.9097 53.4444 37C53.4444 38.0903 53.8776 39.136 54.6486 39.907C55.4195 40.678 56.4652 41.1111 57.5556 41.1111C58.6459 41.1111 59.6916 40.678 60.4626 39.907C61.2335 39.136 61.6667 38.0903 61.6667 37C61.6667 35.9097 61.2335 34.864 60.4626 34.093C59.6916 33.322 58.6459 32.8889 57.5556 32.8889ZM39.0556 8.22222C36.5654 8.22221 34.16 9.12626 32.2862 10.7663C30.4125 12.4064 29.1979 14.671 28.8682 17.1392C30.8604 16.6759 32.8991 16.4427 34.9444 16.4444H48.8277L49.1154 16.3746C48.6279 14.0681 47.3623 11.9993 45.5307 10.515C43.6992 9.03073 41.413 8.22124 39.0556 8.22222Z" fill="black"/>
</svg>
