<svg width="79" height="32" viewBox="0 0 79 32" fill="none" xmlns="http://www.w3.org/2000/svg">
<path d="M1.2642 23V8.45455H4.33949V14.8679H4.53125L9.76562 8.45455H13.4517L8.05398 14.9673L13.5156 23H9.83665L5.85227 17.0199L4.33949 18.8665V23H1.2642ZM18.1286 8.45455V23H15.0533V8.45455H18.1286ZM20.1048 10.9901V8.45455H32.0508V10.9901H27.5977V23H24.5579V10.9901H20.1048Z" fill="white"/>
<g clip-path="url(#clip0_23_193)">
<path d="M62.0583 0C53.2191 0 46.0583 7.16084 46.0583 16C46.0583 18.0513 46.4685 20.028 47.1772 21.8182C44.7902 22.2657 43 24.3543 43 26.8531C43 29.6876 45.3124 32 48.1096 32C50.1608 32 51.951 30.7692 52.7716 29.0163C55.3823 30.8811 58.5897 32 62.0583 32C70.8974 32 78.0583 24.8392 78.0583 16C78.0583 7.16084 70.8974 0 62.0583 0Z" fill="white"/>
<path d="M56.2028 21.0723C57.9557 19.6177 59.3357 18.4242 60.3426 17.4918C61.3496 16.5594 62.2074 15.5897 62.9161 14.5827C63.6247 13.5758 63.9604 12.5688 63.9604 11.5991C63.9604 10.8531 63.7739 10.2937 63.4382 9.88345C63.1026 9.47319 62.5804 9.24942 61.9091 9.24942C61.2377 9.24942 60.6783 9.51049 60.3053 10.0326C59.9324 10.5548 59.7459 11.2634 59.7459 12.1958H55.3077C55.345 10.6667 55.6806 9.3986 56.2774 8.39161C56.9114 7.38461 57.6946 6.6014 58.7389 6.15385C59.7459 5.669 60.8648 5.44522 62.0956 5.44522C64.2214 5.44522 65.8252 6.00466 66.9067 7.08625C67.9883 8.16783 68.5478 9.58508 68.5478 11.338C68.5478 13.2401 67.8764 15.0303 66.5711 16.6713C65.2657 18.3124 63.5874 19.9161 61.5734 21.4825H68.8088V25.2121H55.3823V21.8182C55.979 21.2587 56.2774 21.035 56.2028 21.0723Z" fill="#121E6F"/>
</g>
<defs>
<clipPath id="clip0_23_193">
<rect width="35.0583" height="32" fill="white" transform="translate(43)"/>
</clipPath>
</defs>
</svg>
