<svg width="74" height="67" viewBox="0 0 74 67" fill="none" xmlns="http://www.w3.org/2000/svg">
<path d="M61.05 29.6C54.02 29.6 48.1 35.52 48.1 42.55C48.1 52.17 61.05 66.6 61.05 66.6C61.05 66.6 74 52.17 74 42.55C74 35.52 68.08 29.6 61.05 29.6ZM61.05 47.36C58.46 47.36 56.61 45.14 56.61 42.92C56.61 40.33 58.83 38.48 61.05 38.48C63.27 38.48 65.49 40.7 65.49 42.92C65.86 45.14 63.64 47.36 61.05 47.36ZM46.435 59.2H7.4C5.4374 59.2 3.55518 58.4204 2.16741 57.0326C0.77964 55.6448 0 53.7626 0 51.8V7.4C0 5.4374 0.77964 3.55518 2.16741 2.16741C3.55518 0.77964 5.4374 0 7.4 0H66.6C70.707 0 74 3.293 74 7.4V27.01C71.8354 25.1817 69.3159 23.8212 66.6 23.014V14.8H7.4V25.9H49.543C44.252 29.6 40.7 35.742 40.7 42.55C40.7 48.1 43.364 54.057 46.435 59.2Z" fill="black"/>
</svg>
