<svg width="80" height="80" viewBox="0 0 80 80" fill="none" xmlns="http://www.w3.org/2000/svg">
<path fill-rule="evenodd" clip-rule="evenodd" d="M32.1486 7.48574C37.7486 -1.91997 51.2172 -2.34283 57.4057 6.68574L60.7943 11.6343L65.48 9.32003C66.1265 8.99976 66.8548 8.8828 67.5691 8.98454C68.2833 9.08628 68.95 9.40195 69.4814 9.89C70.0127 10.378 70.3838 11.0156 70.5457 11.7186C70.7077 12.4217 70.6529 13.1573 70.3886 13.8286L63.8114 30.6057C63.49 31.4269 62.8761 32.1001 62.0881 32.4957C61.3 32.8913 60.3934 32.9814 59.5429 32.7486L41.9143 27.9257C41.2158 27.7344 40.592 27.3353 40.1256 26.7812C39.6592 26.2272 39.3723 25.5444 39.3028 24.8236C39.2334 24.1027 39.3848 23.3777 39.7369 22.7449C40.089 22.112 40.6252 21.6011 41.2743 21.28L45.1943 19.3429L41.9886 14.3143C41.8107 14.0342 41.5703 13.7992 41.2862 13.6278C41.002 13.4565 40.682 13.3534 40.3512 13.3269C40.0205 13.3003 39.6881 13.3508 39.3802 13.4746C39.0724 13.5984 38.7975 13.7919 38.5772 14.04L32.16 21.28C31.5693 21.9433 30.7527 22.3626 29.8695 22.4563C28.9863 22.5499 28.1 22.3111 27.3833 21.7865C26.6667 21.2619 26.1713 20.4891 25.9937 19.6188C25.8161 18.7486 25.9691 17.8435 26.4229 17.08L32.1486 7.48574ZM21.5772 26.6743C22.4476 26.5439 23.3355 26.7395 24.0705 27.2236C24.8055 27.7076 25.336 28.4461 25.56 29.2972L30.2 46.9715C30.3841 47.6721 30.3509 48.4121 30.1046 49.0934C29.8583 49.7746 29.4107 50.3649 28.8212 50.7858C28.2316 51.2068 27.528 51.4385 26.8037 51.4502C26.0793 51.4619 25.3686 51.2531 24.7657 50.8515L21.1257 48.4229L18.3714 53.72C18.2189 54.0139 18.1366 54.3391 18.1308 54.6702C18.1251 55.0012 18.1962 55.3291 18.3385 55.628C18.4808 55.927 18.6904 56.1889 18.9509 56.3933C19.2114 56.5976 19.5158 56.7388 19.84 56.8057L29.32 58.7486C30.1832 58.9344 30.947 59.4334 31.4639 60.1493C31.9809 60.8652 32.2143 61.7471 32.1191 62.625C32.0239 63.5028 31.6069 64.3143 30.9486 64.9028C30.2903 65.4912 29.4373 65.815 28.5543 65.8115L17.3772 65.6572C6.4343 65.5029 -0.668557 54.0572 4.06287 44.1829L6.65144 38.7657L2.30859 35.8686C1.71104 35.4686 1.24816 34.8975 0.980516 34.2301C0.712871 33.5627 0.652925 32.83 0.808523 32.128C0.96412 31.4259 1.32801 30.7872 1.85259 30.2954C2.37716 29.8036 3.03798 29.4815 3.74859 29.3715L21.5657 26.68L21.5772 26.6743ZM40.9257 64.1143C40.3769 63.4247 40.1025 62.5565 40.1552 61.6767C40.208 60.7969 40.5842 59.9677 41.2114 59.3486L54.1943 46.4915C54.7091 45.9803 55.3674 45.638 56.0816 45.5102C56.7958 45.3824 57.5319 45.4751 58.1921 45.776C58.8522 46.0769 59.4051 46.5718 59.7771 47.1947C60.149 47.8176 60.3225 48.539 60.2743 49.2629L59.9886 53.6229L65.9543 53.3657C66.2864 53.352 66.6108 53.2612 66.9018 53.1004C67.1928 52.9397 67.4424 52.7135 67.6308 52.4396C67.8193 52.1658 67.9415 51.8519 67.9877 51.5227C68.0339 51.1935 68.0029 50.858 67.8972 50.5429L64.8286 41.3715C64.5415 40.5263 64.5812 39.6042 64.9401 38.7869C65.299 37.9695 65.9509 37.3162 66.7674 36.9556C67.584 36.595 68.506 36.5533 69.3518 36.8386C70.1976 37.1239 70.9059 37.7156 71.3372 38.4972L76.7886 48.2572C82.1257 57.8115 75.76 69.6857 64.8457 70.5257L58.8629 70.9886L58.5257 76.2C58.4795 76.9192 58.2167 77.6076 57.772 78.1747C57.3272 78.7418 56.7213 79.161 56.0339 79.3774C55.3465 79.5938 54.6097 79.5971 53.9203 79.387C53.2309 79.1768 52.6213 78.7631 52.1714 78.2L40.9257 64.1143Z" fill="black"/>
</svg>
