<svg width="79" height="32" viewBox="0 0 79 32" fill="none" xmlns="http://www.w3.org/2000/svg">
<path d="M1.2642 23V8.45455H4.33949V14.8679H4.53125L9.76562 8.45455H13.4517L8.05398 14.9673L13.5156 23H9.83665L5.85227 17.0199L4.33949 18.8665V23H1.2642ZM18.1286 8.45455V23H15.0533V8.45455H18.1286ZM20.1048 10.9901V8.45455H32.0508V10.9901H27.5977V23H24.5579V10.9901H20.1048Z" fill="white"/>
<g clip-path="url(#clip0_23_196)">
<path d="M62.0583 0C53.2191 0 46.0583 7.16084 46.0583 16C46.0583 18.0513 46.4685 20.028 47.1772 21.8182C44.7902 22.2657 43 24.3543 43 26.8531C43 29.6876 45.3124 32 48.1096 32C50.1608 32 51.951 30.7692 52.7716 29.0163C55.3823 30.8811 58.5897 32 62.0583 32C70.8974 32 78.0583 24.8392 78.0583 16C78.0583 7.16084 70.8974 0 62.0583 0Z" fill="white"/>
<path d="M57.1725 7.08625C58.366 6.04196 59.9697 5.51981 61.9837 5.51981C63.3263 5.51981 64.4825 5.74359 65.4522 6.22844C66.4219 6.67599 67.1305 7.34732 67.6154 8.13054C68.1002 8.91375 68.3613 9.84615 68.3613 10.8531C68.3613 12.0466 68.0629 12.979 67.4662 13.7249C66.8695 14.4709 66.1981 14.9557 65.4149 15.2541V15.366C66.4219 15.7016 67.2424 16.2611 67.8392 17.0443C68.4359 17.8275 68.7343 18.8345 68.7343 20.0653C68.7343 21.1841 68.4732 22.1538 67.9511 23.0117C67.4289 23.8695 66.683 24.5408 65.7133 25.0256C64.7436 25.5105 63.5874 25.7343 62.2448 25.7343C60.0816 25.7343 58.366 25.2121 57.0979 24.1678C55.8298 23.1235 55.1585 21.5198 55.0839 19.3939H59.5594C59.5594 20.1772 59.7832 20.8112 60.2308 21.2587C60.6783 21.7063 61.2751 21.9301 62.0956 21.9301C62.8042 21.9301 63.3263 21.7436 63.7366 21.3333C64.1469 20.9231 64.296 20.4009 64.296 19.7296C64.296 18.8718 64.035 18.2378 63.4755 17.8648C62.9161 17.4918 62.0583 17.3054 60.8648 17.3054H60.007V13.5758H60.8648C61.7599 13.5758 62.5058 13.4266 63.0653 13.0909C63.6247 12.7925 63.9231 12.2331 63.9231 11.4126C63.9231 10.7786 63.7366 10.2564 63.4009 9.92075C63.028 9.54779 62.5431 9.3986 61.9091 9.3986C61.2378 9.3986 60.7156 9.62238 60.38 10.0326C60.0443 10.4429 59.8578 10.965 59.8205 11.5618H55.345C55.345 9.62238 55.979 8.13054 57.1725 7.08625Z" fill="#121E6F"/>
</g>
<defs>
<clipPath id="clip0_23_196">
<rect width="35.0583" height="32" fill="white" transform="translate(43)"/>
</clipPath>
</defs>
</svg>
