<svg width="84" height="84" viewBox="0 0 84 84" fill="none" xmlns="http://www.w3.org/2000/svg">
<g clip-path="url(#clip0_47_10)">
<path d="M70.0055 74.4516L63.7547 61.4742C62.4094 58.7016 60.6703 56.6836 57.668 57.9141L51.7453 60.1125C47.0039 62.311 44.6414 60.1125 42.2625 56.7985L31.5984 32.5336C30.2531 29.761 30.9586 27.1524 33.9609 25.9219L42.2461 22.6078C45.2484 21.361 44.7727 18.7688 43.4274 15.9961L36.3234 2.77268C34.9781 2.02656e-05 32.2219 -0.672636 29.2195 0.557833C23.2149 3.03518 18.2438 6.92346 15.0117 12.6821C11.0742 19.7203 13.043 29.5149 13.8305 33.6328C14.618 37.7508 17.3742 44.9696 20.9344 52.3688C24.4945 59.7844 27.6117 65.6086 30.4172 68.9063C33.2063 72.2039 39.9 81.2274 48.1852 83.2453C54.9774 84.886 62.3109 83.5078 68.3156 81.0305C71.3344 79.8492 71.3344 77.2406 70.0055 74.4516Z" fill="black"/>
</g>
<defs>
<clipPath id="clip0_47_10">
<rect width="84" height="84" fill="white"/>
</clipPath>
</defs>
</svg>
