<svg width="66" height="84" viewBox="0 0 66 84" fill="none" xmlns="http://www.w3.org/2000/svg">
<path d="M28.1992 43.8065L32.6002 40.465L36.9605 43.7658C38.5497 44.9475 40.7095 43.4397 40.139 41.5245L38.4275 35.9825L43.3175 32.1112C44.8253 30.9702 43.9695 28.5252 42.0135 28.5252H36.3085L34.5562 23.0646C34.4222 22.657 34.1629 22.3021 33.8154 22.0504C33.4678 21.7988 33.0497 21.6633 32.6206 21.6633C32.1915 21.6633 31.7733 21.7988 31.4257 22.0504C31.0782 22.3021 30.8189 22.657 30.6849 23.0646L28.8919 28.5252H23.1461C21.2309 28.5252 20.3751 30.9702 21.8829 32.1519L26.7322 36.0232L25.0206 41.5652C24.4501 43.4805 26.6099 44.9883 28.1992 43.8065ZM8.15005 79.9112C8.15005 82.6822 10.8803 84.6382 13.5291 83.7825L32.6002 77.4254L51.6713 83.7825C52.2852 83.9918 52.9402 84.0512 53.5818 83.9558C54.2233 83.8603 54.8327 83.6129 55.3591 83.234C55.8856 82.8551 56.3137 82.3559 56.6079 81.7778C56.9021 81.1998 57.0538 80.5598 57.0503 79.9112V54.1163C62.3048 48.181 65.204 40.5271 65.2004 32.6002C65.2004 14.5886 50.6118 0 32.6002 0C14.5886 0 0 14.5886 0 32.6002C0 40.8725 3.09702 48.3705 8.15005 54.1163V79.9112ZM32.6002 8.15005C46.0885 8.15005 57.0503 19.1119 57.0503 32.6002C57.0503 46.0885 46.0885 57.0503 32.6002 57.0503C19.1119 57.0503 8.15005 46.0885 8.15005 32.6002C8.15005 19.1119 19.1119 8.15005 32.6002 8.15005Z" fill="black"/>
</svg>
