<svg width="18" height="18" viewBox="0 0 18 18" fill="none" xmlns="http://www.w3.org/2000/svg">
<path d="M9.44476 17.4435L9.43651 17.445L9.38326 17.4712L9.36826 17.4742L9.35776 17.4712L9.30451 17.445C9.29651 17.4425 9.29051 17.4437 9.28651 17.4487L9.28351 17.4562L9.27076 17.7772L9.27451 17.7922L9.28201 17.802L9.36001 17.8575L9.37126 17.8605L9.38026 17.8575L9.45826 17.802L9.46726 17.79L9.47026 17.7772L9.45751 17.457C9.45551 17.449 9.45126 17.4445 9.44476 17.4435ZM9.64351 17.3587L9.63376 17.3602L9.49501 17.43L9.48751 17.4375L9.48526 17.4457L9.49876 17.7682L9.50251 17.7772L9.50851 17.7825L9.65926 17.8522C9.66876 17.8547 9.67601 17.8527 9.68101 17.8462L9.68401 17.8357L9.65851 17.3752C9.65601 17.3662 9.65101 17.3607 9.64351 17.3587ZM9.10726 17.3602C9.10395 17.3582 9.1 17.3576 9.09623 17.3584C9.09246 17.3592 9.08915 17.3615 9.08701 17.3647L9.08251 17.3752L9.05701 17.8357C9.05751 17.8447 9.06176 17.8507 9.06976 17.8537L9.08101 17.8522L9.23176 17.7825L9.23926 17.7765L9.24226 17.7682L9.25501 17.4457L9.25276 17.4367L9.24526 17.4292L9.10726 17.3602Z" fill="#F87171"/>
<path d="M9 1.5C13.1422 1.5 16.5 4.85775 16.5 9C16.5 13.1422 13.1422 16.5 9 16.5C4.85775 16.5 1.5 13.1422 1.5 9C1.5 4.85775 4.85775 1.5 9 1.5ZM9 12C8.80109 12 8.61032 12.079 8.46967 12.2197C8.32902 12.3603 8.25 12.5511 8.25 12.75C8.25 12.9489 8.32902 13.1397 8.46967 13.2803C8.61032 13.421 8.80109 13.5 9 13.5C9.19891 13.5 9.38968 13.421 9.53033 13.2803C9.67098 13.1397 9.75 12.9489 9.75 12.75C9.75 12.5511 9.67098 12.3603 9.53033 12.2197C9.38968 12.079 9.19891 12 9 12ZM9 4.875C8.27894 4.875 7.58742 5.16144 7.07755 5.6713C6.56769 6.18117 6.28125 6.87269 6.28125 7.59375C6.28125 7.79266 6.36027 7.98343 6.50092 8.12408C6.64157 8.26473 6.83234 8.34375 7.03125 8.34375C7.23016 8.34375 7.42093 8.26473 7.56158 8.12408C7.70223 7.98343 7.78125 7.79266 7.78125 7.59375C7.7815 7.37253 7.84195 7.15554 7.95614 6.96607C8.07032 6.77659 8.23392 6.62176 8.4294 6.51819C8.62488 6.41462 8.84487 6.3662 9.06577 6.37814C9.28667 6.39008 9.50015 6.46192 9.68333 6.58596C9.86651 6.70999 10.0125 6.88155 10.1056 7.08223C10.1987 7.28291 10.2354 7.50514 10.2118 7.7251C10.1882 7.94506 10.1052 8.15446 9.97164 8.33082C9.8381 8.50719 9.65907 8.64389 9.45375 8.72625C8.94675 8.92875 8.25 9.44775 8.25 10.3125V10.5C8.25 10.6989 8.32902 10.8897 8.46967 11.0303C8.61032 11.171 8.80109 11.25 9 11.25C9.19891 11.25 9.38968 11.171 9.53033 11.0303C9.67098 10.8897 9.75 10.6989 9.75 10.5C9.75 10.317 9.7875 10.2255 9.94575 10.1475L10.011 10.1175C10.5966 9.88192 11.082 9.44997 11.3841 8.89569C11.6861 8.34141 11.7859 7.69934 11.6663 7.07954C11.5468 6.45974 11.2154 5.90082 10.7289 5.4986C10.2425 5.09638 9.63122 4.87592 9 4.875Z" fill="#F87171"/>
</svg>
