<svg width="25" height="24" viewBox="0 0 25 24" fill="none" xmlns="http://www.w3.org/2000/svg">
<path d="M12.016 2.01194C6.706 2.26194 2.517 6.65194 2.533 11.9289C2.53571 13.4822 2.9076 15.0126 3.618 16.3939L2.56 21.4949C2.5471 21.5587 2.55048 21.6247 2.56983 21.6868C2.58919 21.749 2.6239 21.8052 2.67075 21.8504C2.7176 21.8955 2.77508 21.9281 2.83787 21.9452C2.90067 21.9622 2.96675 21.9632 3.03 21.9479L8.064 20.7639C9.39751 21.4222 10.861 21.7748 12.348 21.7959C17.775 21.8789 22.299 17.6009 22.468 12.2159C22.65 6.44094 17.851 1.73494 12.016 2.01094V2.01194ZM18.023 17.3789C17.2976 18.102 16.4366 18.6748 15.4893 19.0643C14.5421 19.4539 13.5272 19.6525 12.503 19.6489C11.2981 19.6515 10.1091 19.375 9.029 18.8409L8.328 18.4939L5.241 19.2199L5.891 16.0889L5.545 15.4169C4.98336 14.33 4.69245 13.1234 4.697 11.8999C4.697 9.82994 5.509 7.88294 6.983 6.41994C8.4522 4.96564 10.4358 4.14958 12.503 4.14894C14.589 4.14894 16.549 4.95494 18.023 6.41894C18.7493 7.13451 19.3257 7.98771 19.7183 8.92864C20.111 9.86957 20.3122 10.8794 20.31 11.8989C20.31 13.9509 19.485 15.9289 18.023 17.3799V17.3789Z" fill="white"/>
<path d="M17.342 14.045L15.411 13.495C15.2864 13.4589 15.1544 13.4571 15.0289 13.4899C14.9034 13.5226 14.7891 13.5886 14.698 13.681L14.226 14.159C14.1281 14.2576 14.0035 14.3253 13.8675 14.3537C13.7315 14.3822 13.5902 14.3701 13.461 14.319C12.548 13.952 10.626 12.256 10.135 11.407C10.0657 11.2872 10.0339 11.1494 10.0439 11.0114C10.0539 10.8734 10.1051 10.7415 10.191 10.633L10.603 10.103C10.6823 10.0015 10.7325 9.88023 10.7482 9.75234C10.7639 9.62445 10.7445 9.4947 10.692 9.377L9.88002 7.553C9.83409 7.45105 9.76514 7.36114 9.6786 7.29034C9.59205 7.21954 9.49026 7.16979 9.38124 7.14498C9.27221 7.12017 9.15891 7.12098 9.05025 7.14736C8.94159 7.17374 8.84053 7.22496 8.75502 7.297C8.21602 7.75 7.57602 8.437 7.49902 9.2C7.36202 10.543 7.94202 12.236 10.136 14.27C12.671 16.619 14.702 16.93 16.023 16.611C16.773 16.431 17.373 15.708 17.75 15.117C17.8103 15.0231 17.8477 14.9164 17.8593 14.8054C17.8708 14.6945 17.8562 14.5823 17.8165 14.4781C17.7768 14.3738 17.7132 14.2803 17.6308 14.2051C17.5484 14.1299 17.4495 14.075 17.342 14.045Z" fill="white"/>
</svg>
