<svg width="16" height="16" viewBox="0 0 16 16" fill="none" xmlns="http://www.w3.org/2000/svg">
<path d="M7.98669 5.1757C7.23776 5.1757 6.51951 5.47322 5.98994 6.00279C5.46037 6.53236 5.16285 7.25061 5.16285 7.99954C5.16285 8.74847 5.46037 9.46672 5.98994 9.9963C6.51951 10.5259 7.23776 10.8234 7.98669 10.8234C8.73562 10.8234 9.45387 10.5259 9.98345 9.9963C10.513 9.46672 10.8105 8.74847 10.8105 7.99954C10.8105 7.25061 10.513 6.53236 9.98345 6.00279C9.45387 5.47322 8.73562 5.1757 7.98669 5.1757Z" fill="#E30613"/>
<path fill-rule="evenodd" clip-rule="evenodd" d="M3.44249 0.250933C6.46272 -0.0836444 9.51066 -0.0836444 12.5309 0.250933C14.1809 0.435134 15.5111 1.7341 15.7049 3.39017C16.0628 6.45266 16.0628 9.54642 15.7049 12.6089C15.5111 14.265 14.1809 15.5639 12.5318 15.749C9.51125 16.0837 6.46301 16.0837 3.44249 15.749C1.7925 15.5639 0.462252 14.265 0.268493 12.6098C-0.0894978 9.547 -0.0894978 6.45295 0.268493 3.39017C0.462252 1.7341 1.7925 0.435134 3.44249 0.250933ZM12.3311 2.7863C12.1006 2.7863 11.8796 2.87785 11.7167 3.04079C11.5537 3.20374 11.4622 3.42474 11.4622 3.65518C11.4622 3.88562 11.5537 4.10662 11.7167 4.26956C11.8796 4.43251 12.1006 4.52405 12.3311 4.52405C12.5615 4.52405 12.7825 4.43251 12.9454 4.26956C13.1084 4.10662 13.1999 3.88562 13.1999 3.65518C13.1999 3.42474 13.1084 3.20374 12.9454 3.04079C12.7825 2.87785 12.5615 2.7863 12.3311 2.7863ZM3.85955 7.99954C3.85955 6.90495 4.29437 5.8552 5.06836 5.08121C5.84235 4.30722 6.8921 3.8724 7.98669 3.8724C9.08128 3.8724 10.131 4.30722 10.905 5.08121C11.679 5.8552 12.1138 6.90495 12.1138 7.99954C12.1138 9.09413 11.679 10.1439 10.905 10.9179C10.131 11.6919 9.08128 12.1267 7.98669 12.1267C6.8921 12.1267 5.84235 11.6919 5.06836 10.9179C4.29437 10.1439 3.85955 9.09413 3.85955 7.99954Z" fill="#E30613"/>
</svg>
