<svg width="79" height="32" viewBox="0 0 79 32" fill="none" xmlns="http://www.w3.org/2000/svg">
<path d="M1.2642 23V8.45455H4.33949V14.8679H4.53125L9.76562 8.45455H13.4517L8.05398 14.9673L13.5156 23H9.83665L5.85227 17.0199L4.33949 18.8665V23H1.2642ZM18.1286 8.45455V23H15.0533V8.45455H18.1286ZM20.1048 10.9901V8.45455H32.0508V10.9901H27.5977V23H24.5579V10.9901H20.1048Z" fill="white"/>
<g clip-path="url(#clip0_23_192)">
<path d="M62.0583 0C53.2191 0 46.0583 7.16084 46.0583 16C46.0583 18.0513 46.4685 20.028 47.1772 21.8182C44.7902 22.2657 43 24.3543 43 26.8531C43 29.6876 45.3124 32 48.1096 32C50.1608 32 51.951 30.7692 52.7716 29.0163C55.3823 30.8811 58.5897 32 62.0583 32C70.8974 32 78.0583 24.8392 78.0583 16C78.0583 7.16084 70.8974 0 62.0583 0Z" fill="white"/>
<path d="M58.1795 10.4429V6.19114H65.6014V25.8089H60.8648V10.4429H58.1795Z" fill="#121E6F"/>
</g>
<defs>
<clipPath id="clip0_23_192">
<rect width="35.0583" height="32" fill="white" transform="translate(43)"/>
</clipPath>
</defs>
</svg>
