<svg width="16" height="16" viewBox="0 0 16 16" fill="none" xmlns="http://www.w3.org/2000/svg">
<path d="M12.4624 1.9456L10.8624 1.1056C9.4576 0.3688 8.7552 0 8 0C7.2448 0 6.5424 0.368 5.1376 1.1056L4.8808 1.2408L12.0192 5.32L15.232 3.712C14.7152 3.1264 13.8816 2.6888 12.4624 1.944M15.7984 4.7712L12.6 6.3712V8.8C12.6 8.95913 12.5368 9.11174 12.4243 9.22426C12.3117 9.33679 12.1591 9.4 12 9.4C11.8409 9.4 11.6883 9.33679 11.5757 9.22426C11.4632 9.11174 11.4 8.95913 11.4 8.8V6.9712L8.6 8.3712V15.9232C9.1744 15.78 9.828 15.4376 10.8624 14.8944L12.4624 14.0544C14.1832 13.1512 15.044 12.7 15.5224 11.888C16 11.0768 16 10.0664 16 8.048V7.9544C16 6.44 16 5.4928 15.7984 4.7712ZM7.4 15.9232V8.3712L0.2016 4.7712C7.15256e-08 5.4928 0 6.44 0 7.9528V8.0464C0 10.0664 -9.53674e-08 11.0768 0.4776 11.888C0.956 12.7 1.8168 13.152 3.5376 14.0552L5.1376 14.8944C6.172 15.4376 6.8256 15.78 7.4 15.9232ZM0.768 3.7128L8 7.3288L10.7288 5.9648L3.62 1.9024L3.5376 1.9456C2.1192 2.6896 1.2848 3.1272 0.768 3.7136" fill="#E30613"/>
</svg>
