<svg width="20" height="20" viewBox="0 0 20 20" fill="none" xmlns="http://www.w3.org/2000/svg">
<path d="M9.48305 0.0125522C4.17305 0.262552 -0.0159543 4.65255 4.56812e-05 9.92955C0.00275272 11.4828 0.374641 13.0132 1.08505 14.3946L0.0270457 19.4956C0.0141366 19.5593 0.0175167 19.6253 0.0368734 19.6875C0.05623 19.7496 0.0909383 19.8058 0.137789 19.851C0.184639 19.8961 0.242119 19.9287 0.304913 19.9458C0.367707 19.9629 0.433788 19.9638 0.497046 19.9486L5.53105 18.7646C6.86455 19.4228 8.32807 19.7754 9.81505 19.7966C15.242 19.8796 19.766 15.6016 19.935 10.2166C20.117 4.44155 15.318 -0.264448 9.48305 0.0115522V0.0125522ZM15.49 15.3796C14.7647 16.1026 13.9036 16.6754 12.9564 17.0649C12.0091 17.4545 10.9943 17.6532 9.97005 17.6496C8.76518 17.6521 7.5761 17.3756 6.49605 16.8416L5.79505 16.4946L2.70805 17.2206L3.35805 14.0896L3.01205 13.4176C2.4504 12.3306 2.15949 11.1241 2.16405 9.90055C2.16405 7.83055 2.97605 5.88355 4.45005 4.42055C5.91924 2.96625 7.9028 2.15019 9.97005 2.14955C12.056 2.14955 14.016 2.95555 15.49 4.41955C16.2163 5.13512 16.7927 5.98832 17.1854 6.92925C17.5781 7.87018 17.7792 8.87997 17.777 9.89955C17.777 11.9516 16.952 13.9296 15.49 15.3806V15.3796Z" fill="black"/>
<path d="M14.8091 12.0455L12.8781 11.4955C12.7535 11.4595 12.6215 11.4577 12.496 11.4904C12.3705 11.5232 12.2561 11.5892 12.1651 11.6815L11.6931 12.1595C11.5952 12.2581 11.4705 12.3258 11.3346 12.3543C11.1986 12.3827 11.0572 12.3706 10.9281 12.3195C10.0151 11.9525 8.09306 10.2565 7.60206 9.40755C7.5327 9.28779 7.50095 9.14995 7.51094 9.01193C7.52092 8.8739 7.57218 8.74207 7.65806 8.63355L8.07006 8.10355C8.14937 8.002 8.19956 7.88078 8.21524 7.75289C8.23092 7.62499 8.2115 7.49524 8.15906 7.37755L7.34706 5.55355C7.30113 5.4516 7.23219 5.36169 7.14564 5.29089C7.05909 5.22009 6.95731 5.17033 6.84828 5.14552C6.73925 5.12071 6.62595 5.12153 6.51729 5.14791C6.40863 5.17429 6.30757 5.22551 6.22206 5.29755C5.68306 5.75055 5.04306 6.43755 4.96606 7.20055C4.82906 8.54355 5.40906 10.2365 7.60306 12.2705C10.1381 14.6195 12.1691 14.9305 13.4901 14.6115C14.2401 14.4315 14.8401 13.7085 15.2171 13.1175C15.2774 13.0237 15.3148 12.917 15.3263 12.806C15.3379 12.695 15.3232 12.5829 15.2835 12.4786C15.2438 12.3743 15.1802 12.2808 15.0978 12.2056C15.0154 12.1304 14.9165 12.0756 14.8091 12.0455Z" fill="black"/>
</svg>
