<svg width="32" height="32" viewBox="0 0 32 32" fill="none" xmlns="http://www.w3.org/2000/svg">
<rect width="32" height="32" rx="8" fill="#07135E"/>
<path d="M10.2989 15.7009C10.1114 15.5134 10.0061 15.2591 10.0061 14.9939C10.0061 14.7287 10.1114 14.4744 10.2989 14.2869L14.7989 9.7869C14.9864 9.59943 15.2407 9.49411 15.5059 9.49411C15.7711 9.49411 16.0254 9.59943 16.2129 9.7869L20.7129 14.2869C20.895 14.4755 20.9958 14.7281 20.9936 14.9903C20.9913 15.2525 20.8861 15.5033 20.7007 15.6887C20.5153 15.8741 20.2645 15.9793 20.0023 15.9816C19.7401 15.9838 19.4875 15.8831 19.2989 15.7009L16.5059 12.9939L16.5059 22.4939C16.5059 22.7591 16.4005 23.0135 16.213 23.201C16.0255 23.3885 15.7711 23.4939 15.5059 23.4939C15.2407 23.4939 14.9863 23.3885 14.7988 23.201C14.6112 23.0135 14.5059 22.7591 14.5059 22.4939L14.5059 12.9939L11.7129 15.7009C11.5254 15.8884 11.2711 15.9937 11.0059 15.9937C10.7407 15.9937 10.4864 15.8884 10.2989 15.7009Z" fill="white"/>
</svg>
