<svg width="24" height="24" viewBox="0 0 24 24" fill="none" xmlns="http://www.w3.org/2000/svg">
<path d="M11.9834 8.46963C11.0472 8.46963 10.1494 8.84152 9.48742 9.50349C8.82546 10.1655 8.45357 11.0633 8.45357 11.9994C8.45357 12.9356 8.82546 13.8334 9.48742 14.4954C10.1494 15.1573 11.0472 15.5292 11.9834 15.5292C12.9195 15.5292 13.8173 15.1573 14.4793 14.4954C15.1413 13.8334 15.5132 12.9356 15.5132 11.9994C15.5132 11.0633 15.1413 10.1655 14.4793 9.50349C13.8173 8.84152 12.9195 8.46963 11.9834 8.46963Z" fill="white"/>
<path fill-rule="evenodd" clip-rule="evenodd" d="M6.30311 2.31367C10.0784 1.89544 13.8883 1.89544 17.6636 2.31367C19.7261 2.54392 21.3889 4.16762 21.6311 6.23771C22.0785 10.0658 22.0785 13.933 21.6311 17.7611C21.3889 19.8312 19.7261 21.4549 17.6647 21.6863C13.8891 22.1046 10.0788 22.1046 6.30311 21.6863C4.24062 21.4549 2.57781 19.8312 2.33562 17.7622C1.88813 13.9338 1.88813 10.0662 2.33562 6.23771C2.57781 4.16762 4.24062 2.54392 6.30311 2.31367ZM17.4138 5.48288C17.1258 5.48288 16.8495 5.59731 16.6458 5.80099C16.4422 6.00467 16.3277 6.28092 16.3277 6.56897C16.3277 6.85702 16.4422 7.13327 16.6458 7.33695C16.8495 7.54064 17.1258 7.65506 17.4138 7.65506C17.7019 7.65506 17.9781 7.54064 18.1818 7.33695C18.3855 7.13327 18.4999 6.85702 18.4999 6.56897C18.4999 6.28092 18.3855 6.00467 18.1818 5.80099C17.9781 5.59731 17.7019 5.48288 17.4138 5.48288ZM6.82443 11.9994C6.82443 10.6312 7.36796 9.319 8.33545 8.35151C9.30294 7.38402 10.6151 6.84049 11.9834 6.84049C13.3516 6.84049 14.6638 7.38402 15.6313 8.35151C16.5988 9.319 17.1423 10.6312 17.1423 11.9994C17.1423 13.3677 16.5988 14.6799 15.6313 15.6473C14.6638 16.6148 13.3516 17.1584 11.9834 17.1584C10.6151 17.1584 9.30294 16.6148 8.33545 15.6473C7.36796 14.6799 6.82443 13.3677 6.82443 11.9994Z" fill="white"/>
</svg>
