<svg width="74" height="74" viewBox="0 0 74 74" fill="none" xmlns="http://www.w3.org/2000/svg">
<path fill-rule="evenodd" clip-rule="evenodd" d="M1.54565 2.89994H30.9131C31.7668 2.89994 32.4587 3.59191 32.4587 4.44559V33.813C32.4587 34.6667 31.7668 35.3587 30.9131 35.3587H1.54565C0.69197 35.3587 0 34.6667 0 33.813V4.44559C0 3.59191 0.69197 2.89994 1.54565 2.89994ZM56.0603 0.452683L73.5473 17.9398C74.1509 18.5434 74.1509 19.522 73.5473 20.1257L56.0602 37.6127C55.4566 38.2163 54.478 38.2163 53.8743 37.6127L36.3873 20.1256C35.7837 19.522 35.7837 18.5434 36.3873 17.9397L53.8744 0.452683C54.478 -0.150894 55.4566 -0.150894 56.0603 0.452683ZM1.54565 41.5413H30.9131C31.7668 41.5413 32.4587 42.2332 32.4587 43.0869V72.4543C32.4587 73.308 31.7668 74 30.9131 74H1.54565C0.69197 74 0 73.308 0 72.4543V43.0869C0 42.2332 0.69197 41.5413 1.54565 41.5413ZM40.187 41.5413H69.5544C70.4081 41.5413 71.1001 42.2332 71.1001 43.0869V72.4543C71.1001 73.308 70.4081 74 69.5544 74H40.187C39.3333 74 38.6413 73.308 38.6413 72.4543V43.0869C38.6413 42.2332 39.3333 41.5413 40.187 41.5413Z" fill="black"/>
</svg>
