<svg width="363" height="71" viewBox="0 0 363 71" fill="none" xmlns="http://www.w3.org/2000/svg">
<rect width="363" height="71" rx="16" fill="white"/>
<path d="M84.5376 16.6172C84.4912 16.183 84.2957 15.8449 83.951 15.603C83.6096 15.361 83.1655 15.2401 82.6186 15.2401C82.2341 15.2401 81.9044 15.2981 81.6293 15.4141C81.3542 15.5301 81.1437 15.6875 80.9979 15.8864C80.852 16.0852 80.7775 16.3123 80.7741 16.5675C80.7741 16.7796 80.8222 16.9635 80.9183 17.1193C81.0178 17.2751 81.152 17.4077 81.321 17.517C81.4901 17.6231 81.6773 17.7126 81.8828 17.7855C82.0883 17.8584 82.2955 17.9197 82.5043 17.9695L83.4588 18.2081C83.8433 18.2976 84.2128 18.4186 84.5675 18.571C84.9254 18.7235 85.2453 18.9157 85.527 19.1477C85.812 19.3797 86.0374 19.6598 86.2031 19.9879C86.3688 20.3161 86.4517 20.7005 86.4517 21.1413C86.4517 21.7379 86.2992 22.2633 85.9943 22.7173C85.6894 23.1681 85.2486 23.5211 84.6719 23.7763C84.0985 24.0282 83.4041 24.1541 82.5888 24.1541C81.7966 24.1541 81.1089 24.0315 80.5256 23.7862C79.9455 23.541 79.4915 23.183 79.1634 22.7124C78.8385 22.2417 78.6629 21.6683 78.6364 20.9922H80.451C80.4775 21.3468 80.5869 21.6418 80.7791 21.8771C80.9714 22.1125 81.2216 22.2881 81.5298 22.4041C81.8414 22.5201 82.1894 22.5781 82.5739 22.5781C82.9749 22.5781 83.3262 22.5185 83.6278 22.3991C83.9328 22.2765 84.1714 22.1075 84.3438 21.892C84.5161 21.6733 84.6039 21.4181 84.6072 21.1264C84.6039 20.8613 84.526 20.6425 84.3736 20.4702C84.2211 20.2945 84.0073 20.1487 83.7322 20.0327C83.4605 19.9134 83.1423 19.8073 82.7777 19.7145L81.6193 19.4162C80.7808 19.2008 80.1179 18.8743 79.6307 18.4368C79.1468 17.996 78.9048 17.411 78.9048 16.6818C78.9048 16.0819 79.0672 15.5566 79.392 15.1058C79.7202 14.6551 80.166 14.3054 80.7294 14.0568C81.2929 13.8049 81.9309 13.679 82.6435 13.679C83.366 13.679 83.9991 13.8049 84.5426 14.0568C85.0895 14.3054 85.5187 14.6518 85.8303 15.0959C86.1418 15.5367 86.3026 16.0438 86.3125 16.6172H84.5376ZM91.3972 24.1491C90.6316 24.1491 89.9703 23.9901 89.4135 23.6719C88.86 23.3504 88.4341 22.8963 88.1358 22.3097C87.8375 21.7197 87.6884 21.0253 87.6884 20.2266C87.6884 19.4411 87.8375 18.7517 88.1358 18.1584C88.4374 17.5618 88.8584 17.0978 89.3986 16.7663C89.9389 16.4316 90.5736 16.2642 91.3027 16.2642C91.7734 16.2642 92.2175 16.3404 92.6351 16.4929C93.056 16.642 93.4273 16.8741 93.7488 17.1889C94.0736 17.5038 94.3288 17.9048 94.5144 18.392C94.7 18.8759 94.7928 19.4527 94.7928 20.1222V20.674H88.5336V19.4609H93.0676C93.0643 19.1162 92.9898 18.8097 92.8439 18.5412C92.6981 18.2694 92.4943 18.0556 92.2324 17.8999C91.9739 17.7441 91.6723 17.6662 91.3276 17.6662C90.9597 17.6662 90.6365 17.7557 90.3581 17.9347C90.0797 18.1103 89.8626 18.3423 89.7069 18.6307C89.5544 18.9157 89.4765 19.2289 89.4732 19.5703V20.6293C89.4732 21.0734 89.5544 21.4545 89.7168 21.7727C89.8792 22.0876 90.1062 22.3295 90.3979 22.4986C90.6896 22.6643 91.031 22.7472 91.4221 22.7472C91.6839 22.7472 91.9209 22.7107 92.133 22.6378C92.3451 22.5616 92.5291 22.4505 92.6848 22.3047C92.8406 22.1589 92.9583 21.9782 93.0378 21.7628L94.7182 21.9517C94.6122 22.3958 94.41 22.7836 94.1117 23.1151C93.8167 23.4432 93.4389 23.6984 92.9782 23.8807C92.5175 24.0597 91.9905 24.1491 91.3972 24.1491ZM101.183 20.7884V16.3636H102.982V24H101.237V22.6428H101.158C100.985 23.0703 100.702 23.42 100.308 23.6918C99.9164 23.9635 99.4342 24.0994 98.8608 24.0994C98.3603 24.0994 97.9179 23.9884 97.5334 23.7663C97.1522 23.541 96.8539 23.2145 96.6385 22.7869C96.4231 22.3561 96.3153 21.8357 96.3153 21.2259V16.3636H98.1151V20.9474C98.1151 21.4313 98.2476 21.8158 98.5128 22.1009C98.7779 22.3859 99.1259 22.5284 99.5568 22.5284C99.822 22.5284 100.079 22.4638 100.327 22.3345C100.576 22.2053 100.78 22.013 100.939 21.7578C101.101 21.4993 101.183 21.1761 101.183 20.7884ZM110.344 21.9964L110.354 19.098H110.692L112.84 16.3636H115.594L112.402 20.2812H111.761L110.344 21.9964ZM108.151 24V13.8182H110.583V24H108.151ZM112.894 24L110.896 20.8281L112.497 19.103L115.703 24H112.894ZM116.464 24V16.3636H118.895V24H116.464ZM117.682 15.4737C117.341 15.4737 117.047 15.361 116.802 15.1357C116.557 14.907 116.434 14.6319 116.434 14.3104C116.434 13.9922 116.557 13.7204 116.802 13.495C117.047 13.2663 117.341 13.152 117.682 13.152C118.027 13.152 118.32 13.2663 118.562 13.495C118.807 13.7204 118.93 13.9922 118.93 14.3104C118.93 14.6319 118.807 14.907 118.562 15.1357C118.32 15.361 118.027 15.4737 117.682 15.4737ZM124.753 16.3636V18.1534H119.935V16.3636H124.753ZM120.945 14.5341H123.376V21.5987C123.376 21.7479 123.399 21.8688 123.445 21.9616C123.495 22.0511 123.566 22.1158 123.659 22.1555C123.752 22.192 123.863 22.2102 123.992 22.2102C124.085 22.2102 124.183 22.2019 124.286 22.1854C124.392 22.1655 124.471 22.1489 124.524 22.1357L124.892 23.8906C124.776 23.9238 124.612 23.9652 124.4 24.0149C124.191 24.0646 123.941 24.0961 123.649 24.1094C123.079 24.1359 122.59 24.0696 122.183 23.9105C121.778 23.7481 121.468 23.4962 121.253 23.1548C121.041 22.8134 120.938 22.3842 120.945 21.8672V14.5341ZM131.432 13.8182V24H129.001V13.8182H131.432ZM132.98 24V16.3636H135.411V24H132.98ZM134.198 15.4737C133.856 15.4737 133.563 15.361 133.318 15.1357C133.072 14.907 132.95 14.6319 132.95 14.3104C132.95 13.9922 133.072 13.7204 133.318 13.495C133.563 13.2663 133.856 13.152 134.198 13.152C134.542 13.152 134.836 13.2663 135.078 13.495C135.323 13.7204 135.445 13.9922 135.445 14.3104C135.445 14.6319 135.323 14.907 135.078 15.1357C134.836 15.361 134.542 15.4737 134.198 15.4737ZM136.958 24V16.3636H139.27V17.7656H139.354C139.513 17.3016 139.782 16.9354 140.16 16.6669C140.538 16.3984 140.988 16.2642 141.512 16.2642C142.042 16.2642 142.496 16.4001 142.874 16.6719C143.252 16.9437 143.492 17.3082 143.595 17.7656H143.675C143.817 17.3116 144.096 16.9486 144.51 16.6768C144.924 16.4018 145.413 16.2642 145.977 16.2642C146.699 16.2642 147.286 16.4962 147.737 16.9602C148.187 17.4209 148.413 18.054 148.413 18.8594V24H145.982V19.4162C145.982 19.035 145.884 18.745 145.688 18.5462C145.493 18.344 145.239 18.2429 144.928 18.2429C144.593 18.2429 144.329 18.3523 144.137 18.571C143.948 18.7865 143.854 19.0765 143.854 19.4411V24H141.517V19.3913C141.517 19.0367 141.421 18.7566 141.229 18.5511C141.036 18.3456 140.783 18.2429 140.468 18.2429C140.256 18.2429 140.069 18.2943 139.906 18.397C139.744 18.4964 139.616 18.639 139.523 18.8246C139.434 19.0102 139.389 19.2289 139.389 19.4808V24H136.958ZM149.919 26.8636V16.3636H152.325V17.6712H152.4C152.499 17.4392 152.64 17.2154 152.822 17C153.008 16.7846 153.243 16.6089 153.528 16.473C153.817 16.3338 154.161 16.2642 154.562 16.2642C155.093 16.2642 155.588 16.4034 156.049 16.6818C156.513 16.9602 156.888 17.3894 157.173 17.9695C157.458 18.5495 157.6 19.2886 157.6 20.1868C157.6 21.0518 157.463 21.776 157.188 22.3594C156.916 22.9427 156.548 23.3802 156.084 23.6719C155.623 23.9635 155.111 24.1094 154.548 24.1094C154.163 24.1094 153.83 24.0464 153.548 23.9205C153.267 23.7945 153.03 23.6288 152.837 23.4233C152.648 23.2178 152.503 22.9974 152.4 22.7621H152.35V26.8636H149.919ZM152.3 20.1818C152.3 20.5928 152.355 20.9508 152.464 21.2557C152.577 21.5606 152.738 21.7976 152.947 21.9666C153.159 22.1323 153.412 22.2152 153.707 22.2152C154.006 22.2152 154.259 22.1323 154.468 21.9666C154.677 21.7976 154.834 21.5606 154.94 21.2557C155.05 20.9508 155.104 20.5928 155.104 20.1818C155.104 19.7708 155.05 19.4145 154.94 19.1129C154.834 18.8113 154.677 18.5777 154.468 18.4119C154.263 18.2462 154.009 18.1634 153.707 18.1634C153.409 18.1634 153.156 18.2446 152.947 18.407C152.738 18.5694 152.577 18.8014 152.464 19.103C152.355 19.4046 152.3 19.7642 152.3 20.1818ZM162.444 24.1442C161.645 24.1442 160.956 23.9867 160.376 23.6719C159.799 23.3537 159.355 22.9013 159.043 22.3146C158.735 21.7247 158.581 21.0237 158.581 20.2116C158.581 19.4228 158.737 18.7334 159.048 18.1435C159.36 17.5502 159.799 17.0895 160.366 16.7614C160.932 16.4299 161.6 16.2642 162.369 16.2642C162.913 16.2642 163.41 16.3487 163.861 16.5178C164.311 16.6868 164.701 16.937 165.029 17.2685C165.357 17.5999 165.612 18.0092 165.795 18.4964C165.977 18.9804 166.068 19.5355 166.068 20.1619V20.7685H159.431V19.3565H163.806C163.803 19.098 163.741 18.8677 163.622 18.6655C163.503 18.4633 163.339 18.3059 163.13 18.1932C162.924 18.0772 162.687 18.0192 162.419 18.0192C162.147 18.0192 161.903 18.0805 161.688 18.2031C161.473 18.3224 161.302 18.4865 161.176 18.6953C161.05 18.9008 160.984 19.1345 160.977 19.3963V20.8331C160.977 21.1446 161.038 21.4181 161.161 21.6534C161.284 21.8854 161.458 22.0661 161.683 22.1953C161.908 22.3246 162.177 22.3892 162.488 22.3892C162.704 22.3892 162.899 22.3594 163.075 22.2997C163.251 22.2401 163.402 22.1522 163.528 22.0362C163.653 21.9202 163.748 21.7777 163.811 21.6087L166.043 21.6733C165.95 22.1738 165.747 22.6096 165.432 22.9808C165.12 23.3487 164.711 23.6354 164.204 23.8409C163.697 24.0431 163.11 24.1442 162.444 24.1442ZM167.33 24V22.6129L170.869 18.3026V18.2528H167.454V16.3636H173.768V17.8849L170.487 22.0611V22.1108H173.887V24H167.33ZM177.611 24.1293C177.124 24.1293 176.691 24.0481 176.313 23.8857C175.939 23.7199 175.642 23.4714 175.423 23.1399C175.208 22.8052 175.1 22.3859 175.1 21.8821C175.1 21.4579 175.175 21.0999 175.324 20.8082C175.473 20.5166 175.679 20.2796 175.94 20.0973C176.202 19.915 176.504 19.7775 176.845 19.6847C177.187 19.5885 177.551 19.5239 177.939 19.4908C178.373 19.451 178.723 19.4096 178.988 19.3665C179.253 19.3201 179.445 19.2554 179.565 19.1726C179.687 19.0864 179.749 18.9654 179.749 18.8097V18.7848C179.749 18.5296 179.661 18.3324 179.485 18.1932C179.309 18.054 179.072 17.9844 178.774 17.9844C178.453 17.9844 178.194 18.054 177.999 18.1932C177.803 18.3324 177.679 18.5246 177.626 18.7699L175.384 18.6903C175.45 18.2263 175.621 17.812 175.896 17.4474C176.174 17.0795 176.555 16.7912 177.039 16.5824C177.526 16.3703 178.111 16.2642 178.794 16.2642C179.281 16.2642 179.73 16.3222 180.141 16.4382C180.552 16.5509 180.91 16.7166 181.215 16.9354C181.52 17.1508 181.755 17.416 181.921 17.7308C182.09 18.0457 182.175 18.4053 182.175 18.8097V24H179.888V22.9361H179.828C179.692 23.1946 179.518 23.4134 179.306 23.5923C179.097 23.7713 178.85 23.9055 178.565 23.995C178.284 24.0845 177.965 24.1293 177.611 24.1293ZM178.362 22.5384C178.623 22.5384 178.859 22.4853 179.067 22.3793C179.28 22.2732 179.449 22.1274 179.575 21.9418C179.701 21.7528 179.763 21.5341 179.763 21.2855V20.5597C179.694 20.5961 179.609 20.6293 179.51 20.6591C179.414 20.6889 179.308 20.7171 179.192 20.7436C179.076 20.7701 178.956 20.7933 178.834 20.8132C178.711 20.8331 178.594 20.8513 178.481 20.8679C178.252 20.9044 178.057 20.9607 177.894 21.0369C177.735 21.1132 177.612 21.2126 177.526 21.3352C177.443 21.4545 177.402 21.5971 177.402 21.7628C177.402 22.0147 177.491 22.2069 177.67 22.3395C177.853 22.4721 178.083 22.5384 178.362 22.5384ZM186.669 26.8636V16.3636H189.075V17.6712H189.15C189.249 17.4392 189.39 17.2154 189.572 17C189.758 16.7846 189.993 16.6089 190.278 16.473C190.567 16.3338 190.911 16.2642 191.312 16.2642C191.843 16.2642 192.338 16.4034 192.799 16.6818C193.263 16.9602 193.638 17.3894 193.923 17.9695C194.208 18.5495 194.35 19.2886 194.35 20.1868C194.35 21.0518 194.213 21.776 193.938 22.3594C193.666 22.9427 193.298 23.3802 192.834 23.6719C192.373 23.9635 191.861 24.1094 191.298 24.1094C190.913 24.1094 190.58 24.0464 190.298 23.9205C190.017 23.7945 189.78 23.6288 189.587 23.4233C189.398 23.2178 189.253 22.9974 189.15 22.7621H189.1V26.8636H186.669ZM189.05 20.1818C189.05 20.5928 189.105 20.9508 189.214 21.2557C189.327 21.5606 189.488 21.7976 189.697 21.9666C189.909 22.1323 190.162 22.2152 190.457 22.2152C190.756 22.2152 191.009 22.1323 191.218 21.9666C191.427 21.7976 191.584 21.5606 191.69 21.2557C191.8 20.9508 191.854 20.5928 191.854 20.1818C191.854 19.7708 191.8 19.4145 191.69 19.1129C191.584 18.8113 191.427 18.5777 191.218 18.4119C191.013 18.2462 190.759 18.1634 190.457 18.1634C190.159 18.1634 189.906 18.2446 189.697 18.407C189.488 18.5694 189.327 18.8014 189.214 19.103C189.105 19.4046 189.05 19.7642 189.05 20.1818ZM199.194 24.1442C198.395 24.1442 197.706 23.9867 197.126 23.6719C196.549 23.3537 196.105 22.9013 195.793 22.3146C195.485 21.7247 195.331 21.0237 195.331 20.2116C195.331 19.4228 195.487 18.7334 195.798 18.1435C196.11 17.5502 196.549 17.0895 197.116 16.7614C197.682 16.4299 198.35 16.2642 199.119 16.2642C199.663 16.2642 200.16 16.3487 200.611 16.5178C201.061 16.6868 201.451 16.937 201.779 17.2685C202.107 17.5999 202.362 18.0092 202.545 18.4964C202.727 18.9804 202.818 19.5355 202.818 20.1619V20.7685H196.181V19.3565H200.556C200.553 19.098 200.491 18.8677 200.372 18.6655C200.253 18.4633 200.089 18.3059 199.88 18.1932C199.674 18.0772 199.437 18.0192 199.169 18.0192C198.897 18.0192 198.653 18.0805 198.438 18.2031C198.223 18.3224 198.052 18.4865 197.926 18.6953C197.8 18.9008 197.734 19.1345 197.727 19.3963V20.8331C197.727 21.1446 197.788 21.4181 197.911 21.6534C198.034 21.8854 198.208 22.0661 198.433 22.1953C198.658 22.3246 198.927 22.3892 199.238 22.3892C199.454 22.3892 199.649 22.3594 199.825 22.2997C200.001 22.2401 200.152 22.1522 200.278 22.0362C200.403 21.9202 200.498 21.7777 200.561 21.6087L202.793 21.6733C202.7 22.1738 202.497 22.6096 202.182 22.9808C201.87 23.3487 201.461 23.6354 200.954 23.8409C200.447 24.0431 199.86 24.1442 199.194 24.1442ZM210.727 18.6953L208.494 18.755C208.471 18.5959 208.408 18.455 208.305 18.3324C208.203 18.2064 208.068 18.1087 207.903 18.0391C207.74 17.9661 207.551 17.9297 207.336 17.9297C207.054 17.9297 206.814 17.986 206.615 18.0987C206.42 18.2114 206.323 18.3639 206.327 18.5561C206.323 18.7053 206.383 18.8345 206.506 18.9439C206.632 19.0533 206.855 19.1411 207.177 19.2074L208.648 19.4858C209.411 19.6316 209.978 19.8736 210.349 20.2116C210.723 20.5497 210.912 20.9972 210.915 21.554C210.912 22.0777 210.756 22.5334 210.448 22.9212C210.143 23.3089 209.726 23.6106 209.195 23.826C208.665 24.0381 208.058 24.1442 207.376 24.1442C206.285 24.1442 205.425 23.9205 204.795 23.473C204.169 23.0223 203.811 22.419 203.722 21.6634L206.123 21.6037C206.176 21.8821 206.313 22.0942 206.536 22.2401C206.758 22.3859 207.041 22.4588 207.386 22.4588C207.697 22.4588 207.951 22.4008 208.146 22.2848C208.342 22.1688 208.441 22.0147 208.445 21.8224C208.441 21.6501 208.365 21.5125 208.216 21.4098C208.067 21.3037 207.833 21.2209 207.515 21.1612L206.183 20.9077C205.417 20.7685 204.847 20.5116 204.472 20.1371C204.098 19.7592 203.912 19.2786 203.915 18.6953C203.912 18.1849 204.048 17.7491 204.323 17.3878C204.598 17.0232 204.989 16.7448 205.496 16.5526C206.004 16.3603 206.602 16.2642 207.291 16.2642C208.325 16.2642 209.141 16.4813 209.737 16.9155C210.334 17.3464 210.664 17.9396 210.727 18.6953ZM214.265 24.1293C213.778 24.1293 213.345 24.0481 212.968 23.8857C212.593 23.7199 212.296 23.4714 212.078 23.1399C211.862 22.8052 211.754 22.3859 211.754 21.8821C211.754 21.4579 211.829 21.0999 211.978 20.8082C212.127 20.5166 212.333 20.2796 212.595 20.0973C212.856 19.915 213.158 19.7775 213.499 19.6847C213.841 19.5885 214.205 19.5239 214.593 19.4908C215.027 19.451 215.377 19.4096 215.642 19.3665C215.907 19.3201 216.1 19.2554 216.219 19.1726C216.342 19.0864 216.403 18.9654 216.403 18.8097V18.7848C216.403 18.5296 216.315 18.3324 216.139 18.1932C215.964 18.054 215.727 17.9844 215.428 17.9844C215.107 17.9844 214.848 18.054 214.653 18.1932C214.457 18.3324 214.333 18.5246 214.28 18.7699L212.038 18.6903C212.104 18.2263 212.275 17.812 212.55 17.4474C212.828 17.0795 213.209 16.7912 213.693 16.5824C214.181 16.3703 214.766 16.2642 215.448 16.2642C215.936 16.2642 216.385 16.3222 216.796 16.4382C217.207 16.5509 217.565 16.7166 217.869 16.9354C218.174 17.1508 218.41 17.416 218.575 17.7308C218.744 18.0457 218.829 18.4053 218.829 18.8097V24H216.542V22.9361H216.482C216.347 23.1946 216.173 23.4134 215.96 23.5923C215.752 23.7713 215.505 23.9055 215.22 23.995C214.938 24.0845 214.62 24.1293 214.265 24.1293ZM215.016 22.5384C215.278 22.5384 215.513 22.4853 215.722 22.3793C215.934 22.2732 216.103 22.1274 216.229 21.9418C216.355 21.7528 216.418 21.5341 216.418 21.2855V20.5597C216.348 20.5961 216.264 20.6293 216.164 20.6591C216.068 20.6889 215.962 20.7171 215.846 20.7436C215.73 20.7701 215.611 20.7933 215.488 20.8132C215.365 20.8331 215.248 20.8513 215.135 20.8679C214.906 20.9044 214.711 20.9607 214.548 21.0369C214.389 21.1132 214.267 21.2126 214.181 21.3352C214.098 21.4545 214.056 21.5971 214.056 21.7628C214.056 22.0147 214.146 22.2069 214.325 22.3395C214.507 22.4721 214.737 22.5384 215.016 22.5384ZM223.105 24.1094C222.541 24.1094 222.029 23.9635 221.568 23.6719C221.108 23.3802 220.74 22.9427 220.465 22.3594C220.19 21.776 220.052 21.0518 220.052 20.1868C220.052 19.2886 220.195 18.5495 220.48 17.9695C220.765 17.3894 221.137 16.9602 221.598 16.6818C222.062 16.4034 222.561 16.2642 223.095 16.2642C223.496 16.2642 223.839 16.3338 224.124 16.473C224.409 16.6089 224.644 16.7846 224.83 17C225.015 17.2154 225.156 17.4392 225.252 17.6712H225.302V13.8182H227.733V24H225.327V22.7621H225.252C225.15 22.9974 225.004 23.2178 224.815 23.4233C224.626 23.6288 224.389 23.7945 224.104 23.9205C223.822 24.0464 223.489 24.1094 223.105 24.1094ZM223.95 22.2152C224.245 22.2152 224.497 22.1323 224.705 21.9666C224.914 21.7976 225.075 21.5606 225.188 21.2557C225.3 20.9508 225.357 20.5928 225.357 20.1818C225.357 19.7642 225.3 19.4046 225.188 19.103C225.078 18.8014 224.918 18.5694 224.705 18.407C224.497 18.2446 224.245 18.1634 223.95 18.1634C223.648 18.1634 223.393 18.2462 223.184 18.4119C222.975 18.5777 222.816 18.8113 222.707 19.1129C222.601 19.4145 222.548 19.7708 222.548 20.1818C222.548 20.5928 222.602 20.9508 222.712 21.2557C222.821 21.5606 222.979 21.7976 223.184 21.9666C223.393 22.1323 223.648 22.2152 223.95 22.2152ZM231.423 24.1293C230.936 24.1293 230.504 24.0481 230.126 23.8857C229.751 23.7199 229.455 23.4714 229.236 23.1399C229.02 22.8052 228.913 22.3859 228.913 21.8821C228.913 21.4579 228.987 21.0999 229.136 20.8082C229.286 20.5166 229.491 20.2796 229.753 20.0973C230.015 19.915 230.316 19.7775 230.658 19.6847C230.999 19.5885 231.364 19.5239 231.751 19.4908C232.186 19.451 232.535 19.4096 232.8 19.3665C233.066 19.3201 233.258 19.2554 233.377 19.1726C233.5 19.0864 233.561 18.9654 233.561 18.8097V18.7848C233.561 18.5296 233.473 18.3324 233.298 18.1932C233.122 18.054 232.885 17.9844 232.587 17.9844C232.265 17.9844 232.007 18.054 231.811 18.1932C231.616 18.3324 231.491 18.5246 231.438 18.7699L229.196 18.6903C229.262 18.2263 229.433 17.812 229.708 17.4474C229.987 17.0795 230.368 16.7912 230.852 16.5824C231.339 16.3703 231.924 16.2642 232.607 16.2642C233.094 16.2642 233.543 16.3222 233.954 16.4382C234.365 16.5509 234.723 16.7166 235.028 16.9354C235.333 17.1508 235.568 17.416 235.734 17.7308C235.903 18.0457 235.987 18.4053 235.987 18.8097V24H233.7V22.9361H233.641C233.505 23.1946 233.331 23.4134 233.119 23.5923C232.91 23.7713 232.663 23.9055 232.378 23.995C232.096 24.0845 231.778 24.1293 231.423 24.1293ZM232.174 22.5384C232.436 22.5384 232.671 22.4853 232.88 22.3793C233.092 22.2732 233.261 22.1274 233.387 21.9418C233.513 21.7528 233.576 21.5341 233.576 21.2855V20.5597C233.506 20.5961 233.422 20.6293 233.322 20.6591C233.226 20.6889 233.12 20.7171 233.004 20.7436C232.888 20.7701 232.769 20.7933 232.646 20.8132C232.524 20.8331 232.406 20.8513 232.293 20.8679C232.065 20.9044 231.869 20.9607 231.707 21.0369C231.548 21.1132 231.425 21.2126 231.339 21.3352C231.256 21.4545 231.214 21.5971 231.214 21.7628C231.214 22.0147 231.304 22.2069 231.483 22.3395C231.665 22.4721 231.896 22.5384 232.174 22.5384ZM244.431 24.1491C243.669 24.1491 243.015 23.9818 242.468 23.647C241.924 23.3123 241.505 22.8499 241.21 22.2599C240.918 21.6667 240.772 20.9839 240.772 20.2116C240.772 19.4361 240.922 18.7517 241.22 18.1584C241.518 17.5618 241.939 17.0978 242.483 16.7663C243.029 16.4316 243.676 16.2642 244.422 16.2642C245.041 16.2642 245.59 16.3786 246.067 16.6072C246.548 16.8326 246.931 17.1525 247.216 17.5668C247.501 17.9777 247.663 18.4583 247.703 19.0085H245.983C245.913 18.6406 245.747 18.334 245.485 18.0888C245.227 17.8402 244.881 17.7159 244.446 17.7159C244.078 17.7159 243.755 17.8153 243.477 18.0142C243.199 18.2098 242.981 18.4915 242.826 18.8594C242.673 19.2273 242.597 19.6681 242.597 20.1818C242.597 20.7022 242.673 21.1496 242.826 21.5241C242.978 21.8954 243.192 22.1821 243.467 22.3842C243.745 22.5831 244.072 22.6825 244.446 22.6825C244.712 22.6825 244.949 22.6328 245.157 22.5334C245.369 22.4306 245.547 22.2831 245.689 22.0909C245.832 21.8987 245.93 21.665 245.983 21.3899H247.703C247.66 21.9302 247.501 22.4091 247.225 22.8267C246.95 23.241 246.576 23.5658 246.102 23.8011C245.628 24.0331 245.071 24.1491 244.431 24.1491ZM250.98 19.5256V24H249.181V13.8182H250.941V17.6612H251.03C251.209 17.2304 251.486 16.8906 251.86 16.642C252.238 16.3902 252.719 16.2642 253.302 16.2642C253.832 16.2642 254.295 16.3752 254.689 16.5973C255.084 16.8194 255.388 17.1442 255.604 17.5717C255.823 17.9993 255.932 18.5213 255.932 19.1378V24H254.132V19.4162C254.132 18.9025 254 18.5031 253.735 18.218C253.473 17.9297 253.105 17.7855 252.631 17.7855C252.313 17.7855 252.028 17.8551 251.776 17.9943C251.527 18.1302 251.332 18.3274 251.189 18.5859C251.05 18.8445 250.98 19.1577 250.98 19.5256ZM261.147 24.1491C260.382 24.1491 259.72 23.9901 259.164 23.6719C258.61 23.3504 258.184 22.8963 257.886 22.3097C257.588 21.7197 257.438 21.0253 257.438 20.2266C257.438 19.4411 257.588 18.7517 257.886 18.1584C258.187 17.5618 258.608 17.0978 259.149 16.7663C259.689 16.4316 260.324 16.2642 261.053 16.2642C261.523 16.2642 261.968 16.3404 262.385 16.4929C262.806 16.642 263.177 16.8741 263.499 17.1889C263.824 17.5038 264.079 17.9048 264.264 18.392C264.45 18.8759 264.543 19.4527 264.543 20.1222V20.674H258.284V19.4609H262.818C262.814 19.1162 262.74 18.8097 262.594 18.5412C262.448 18.2694 262.244 18.0556 261.982 17.8999C261.724 17.7441 261.422 17.6662 261.078 17.6662C260.71 17.6662 260.387 17.7557 260.108 17.9347C259.83 18.1103 259.613 18.3423 259.457 18.6307C259.304 18.9157 259.227 19.2289 259.223 19.5703V20.6293C259.223 21.0734 259.304 21.4545 259.467 21.7727C259.629 22.0876 259.856 22.3295 260.148 22.4986C260.44 22.6643 260.781 22.7472 261.172 22.7472C261.434 22.7472 261.671 22.7107 261.883 22.6378C262.095 22.5616 262.279 22.4505 262.435 22.3047C262.591 22.1589 262.708 21.9782 262.788 21.7628L264.468 21.9517C264.362 22.3958 264.16 22.7836 263.862 23.1151C263.567 23.4432 263.189 23.6984 262.728 23.8807C262.267 24.0597 261.74 24.1491 261.147 24.1491ZM269.386 27.0227C268.74 27.0227 268.185 26.9349 267.721 26.7592C267.257 26.5869 266.884 26.3549 266.602 26.0632C266.321 25.7715 266.125 25.4484 266.016 25.0938L267.636 24.701C267.709 24.8501 267.815 24.9976 267.955 25.1435C268.094 25.2926 268.281 25.4152 268.516 25.5114C268.755 25.6108 269.055 25.6605 269.416 25.6605C269.927 25.6605 270.349 25.5362 270.684 25.2876C271.019 25.0424 271.186 24.638 271.186 24.0746V22.6278H271.097C271.004 22.8134 270.868 23.004 270.689 23.1996C270.513 23.3951 270.28 23.5592 269.988 23.6918C269.7 23.8243 269.337 23.8906 268.899 23.8906C268.312 23.8906 267.781 23.7531 267.303 23.478C266.829 23.1996 266.451 22.7853 266.17 22.2351C265.891 21.6816 265.752 20.9889 265.752 20.157C265.752 19.3184 265.891 18.6108 266.17 18.0341C266.451 17.4541 266.831 17.0149 267.308 16.7166C267.786 16.415 268.317 16.2642 268.904 16.2642C269.352 16.2642 269.719 16.3404 270.008 16.4929C270.299 16.642 270.531 16.8227 270.704 17.0348C270.876 17.2436 271.007 17.4408 271.097 17.6264H271.196V16.3636H272.971V24.1243C272.971 24.7772 272.815 25.3175 272.504 25.745C272.192 26.1726 271.766 26.4924 271.226 26.7045C270.686 26.9167 270.072 27.0227 269.386 27.0227ZM269.401 22.4787C269.782 22.4787 270.107 22.3859 270.376 22.2003C270.644 22.0147 270.848 21.7479 270.987 21.3999C271.126 21.0518 271.196 20.6342 271.196 20.147C271.196 19.6664 271.126 19.2455 270.987 18.8842C270.851 18.523 270.649 18.2429 270.381 18.044C270.116 17.8419 269.789 17.7408 269.401 17.7408C269 17.7408 268.665 17.8452 268.397 18.054C268.129 18.2628 267.926 18.5495 267.79 18.9141C267.655 19.2753 267.587 19.6863 267.587 20.147C267.587 20.6143 267.655 21.0237 267.79 21.375C267.93 21.723 268.134 21.9948 268.402 22.1903C268.674 22.3826 269.007 22.4787 269.401 22.4787ZM278.146 24.1491C277.401 24.1491 276.754 23.9851 276.207 23.657C275.661 23.3288 275.236 22.8698 274.935 22.2798C274.636 21.6899 274.487 21.0005 274.487 20.2116C274.487 19.4228 274.636 18.7318 274.935 18.1385C275.236 17.5452 275.661 17.0845 276.207 16.7564C276.754 16.4283 277.401 16.2642 278.146 16.2642C278.892 16.2642 279.538 16.4283 280.085 16.7564C280.632 17.0845 281.055 17.5452 281.353 18.1385C281.655 18.7318 281.805 19.4228 281.805 20.2116C281.805 21.0005 281.655 21.6899 281.353 22.2798C281.055 22.8698 280.632 23.3288 280.085 23.657C279.538 23.9851 278.892 24.1491 278.146 24.1491ZM278.156 22.7074C278.561 22.7074 278.899 22.5964 279.17 22.3743C279.442 22.1489 279.644 21.8473 279.777 21.4695C279.913 21.0916 279.981 20.6707 279.981 20.2067C279.981 19.7393 279.913 19.3168 279.777 18.9389C279.644 18.5578 279.442 18.2545 279.17 18.0291C278.899 17.8037 278.561 17.6911 278.156 17.6911C277.742 17.6911 277.397 17.8037 277.122 18.0291C276.85 18.2545 276.647 18.5578 276.511 18.9389C276.378 19.3168 276.312 19.7393 276.312 20.2067C276.312 20.6707 276.378 21.0916 276.511 21.4695C276.647 21.8473 276.85 22.1489 277.122 22.3743C277.397 22.5964 277.742 22.7074 278.156 22.7074ZM288.2 20.7884V16.3636H290V24H288.255V22.6428H288.175C288.003 23.0703 287.72 23.42 287.325 23.6918C286.934 23.9635 286.452 24.0994 285.878 24.0994C285.378 24.0994 284.935 23.9884 284.551 23.7663C284.17 23.541 283.872 23.2145 283.656 22.7869C283.441 22.3561 283.333 21.8357 283.333 21.2259V16.3636H285.133V20.9474C285.133 21.4313 285.265 21.8158 285.53 22.1009C285.796 22.3859 286.144 22.5284 286.574 22.5284C286.84 22.5284 287.096 22.4638 287.345 22.3345C287.594 22.2053 287.797 22.013 287.956 21.7578C288.119 21.4993 288.2 21.1761 288.2 20.7884Z" fill="black"/>
<path opacity="0.7" d="M78.799 44V36.7273H83.3089V37.6719H79.8963V39.8878H82.9858V40.8288H79.8963V44H78.799ZM84.5732 44V38.5455H85.6349V44H84.5732ZM85.1094 37.7038C84.9247 37.7038 84.7661 37.6423 84.6335 37.5192C84.5033 37.3937 84.4382 37.2446 84.4382 37.0717C84.4382 36.8965 84.5033 36.7474 84.6335 36.6243C84.7661 36.4988 84.9247 36.4361 85.1094 36.4361C85.294 36.4361 85.4515 36.4988 85.5817 36.6243C85.7143 36.7474 85.7805 36.8965 85.7805 37.0717C85.7805 37.2446 85.7143 37.3937 85.5817 37.5192C85.4515 37.6423 85.294 37.7038 85.1094 37.7038ZM89.361 44.1101C88.833 44.1101 88.3785 43.9905 87.9973 43.7514C87.6185 43.5099 87.3274 43.1773 87.1238 42.7536C86.9202 42.3298 86.8184 41.8445 86.8184 41.2976C86.8184 40.7436 86.9225 40.2547 87.1309 39.831C87.3392 39.4048 87.6328 39.0722 88.0115 38.8331C88.3903 38.594 88.8366 38.4744 89.3503 38.4744C89.7646 38.4744 90.1339 38.5514 90.4583 38.7053C90.7826 38.8568 91.0442 39.0698 91.2431 39.3445C91.4443 39.6191 91.5639 39.9399 91.6017 40.3068H90.5684C90.5115 40.0511 90.3813 39.831 90.1777 39.6463C89.9765 39.4616 89.7066 39.3693 89.3681 39.3693C89.0721 39.3693 88.8129 39.4474 88.5904 39.6037C88.3702 39.7576 88.1986 39.9777 88.0755 40.2642C87.9524 40.5483 87.8908 40.8845 87.8908 41.2727C87.8908 41.6705 87.9512 42.0137 88.0719 42.3026C88.1926 42.5914 88.3631 42.8151 88.5833 42.9737C88.8058 43.1323 89.0674 43.2116 89.3681 43.2116C89.5693 43.2116 89.7516 43.175 89.915 43.1016C90.0807 43.0258 90.2192 42.9181 90.3304 42.7784C90.4441 42.6387 90.5234 42.4706 90.5684 42.2741H91.6017C91.5639 42.6269 91.449 42.9418 91.2573 43.2188C91.0655 43.4957 90.8087 43.7135 90.4867 43.8722C90.1671 44.0308 89.7918 44.1101 89.361 44.1101ZM94.3246 44.1207C93.9789 44.1207 93.6664 44.0568 93.3871 43.929C93.1077 43.7988 92.8864 43.6106 92.723 43.3643C92.562 43.1181 92.4815 42.8163 92.4815 42.4588C92.4815 42.151 92.5407 41.8977 92.6591 41.6989C92.7775 41.5 92.9373 41.3426 93.1385 41.2266C93.3397 41.1106 93.5646 41.023 93.8132 40.9638C94.0618 40.9046 94.3151 40.8596 94.5732 40.8288C94.8999 40.791 95.165 40.7602 95.3686 40.7365C95.5722 40.7105 95.7202 40.669 95.8125 40.6122C95.9048 40.5554 95.951 40.4631 95.951 40.3352V40.3104C95.951 40.0002 95.8634 39.7599 95.6882 39.5895C95.5154 39.419 95.2573 39.3338 94.9141 39.3338C94.5566 39.3338 94.2749 39.4131 94.0689 39.5717C93.8653 39.728 93.7244 39.902 93.6463 40.0938L92.6484 39.8665C92.7668 39.535 92.9396 39.2675 93.1669 39.0639C93.3965 38.858 93.6605 38.7088 93.9588 38.6165C94.2571 38.5218 94.5708 38.4744 94.8999 38.4744C95.1177 38.4744 95.3485 38.5005 95.5923 38.5526C95.8385 38.6023 96.0682 38.6946 96.2812 38.8295C96.4967 38.9645 96.6731 39.1574 96.8104 39.4084C96.9477 39.657 97.0163 39.9801 97.0163 40.3778V44H95.9794V43.2543H95.9368C95.8681 43.3916 95.7652 43.5265 95.6278 43.6591C95.4905 43.7917 95.3142 43.9018 95.0987 43.9893C94.8833 44.0769 94.6252 44.1207 94.3246 44.1207ZM94.5554 43.2685C94.849 43.2685 95.0999 43.2105 95.3082 43.0945C95.5189 42.9785 95.6787 42.8269 95.7876 42.6399C95.8989 42.4505 95.9545 42.2481 95.9545 42.0327V41.3295C95.9167 41.3674 95.8433 41.4029 95.7344 41.4361C95.6278 41.4669 95.5059 41.4941 95.3686 41.5178C95.2313 41.5391 95.0975 41.5592 94.9673 41.5781C94.8371 41.5947 94.7282 41.6089 94.6406 41.6207C94.4347 41.6468 94.2464 41.6906 94.076 41.7521C93.9079 41.8137 93.773 41.9025 93.6712 42.0185C93.5717 42.1321 93.522 42.2836 93.522 42.473C93.522 42.7358 93.6191 42.9347 93.8132 43.0696C94.0073 43.2022 94.2547 43.2685 94.5554 43.2685ZM98.4306 44V38.5455H99.4498V39.4332H99.5172C99.6309 39.1326 99.8167 38.8982 100.075 38.7301C100.333 38.5597 100.642 38.4744 101.002 38.4744C101.366 38.4744 101.672 38.5597 101.918 38.7301C102.166 38.9006 102.35 39.1349 102.468 39.4332H102.525C102.655 39.142 102.862 38.91 103.146 38.7372C103.431 38.562 103.769 38.4744 104.162 38.4744C104.657 38.4744 105.061 38.6295 105.373 38.9396C105.688 39.2498 105.845 39.7173 105.845 40.3423V44H104.784V40.4418C104.784 40.0724 104.683 39.8049 104.482 39.6392C104.28 39.4735 104.04 39.3906 103.761 39.3906C103.415 39.3906 103.146 39.4972 102.955 39.7102C102.763 39.9209 102.667 40.192 102.667 40.5234V44H101.609V40.3743C101.609 40.0784 101.517 39.8404 101.332 39.6605C101.147 39.4806 100.907 39.3906 100.611 39.3906C100.41 39.3906 100.224 39.4439 100.053 39.5504C99.8854 39.6546 99.7492 39.8002 99.6451 39.9872C99.5433 40.1742 99.4924 40.3909 99.4924 40.6371V44H98.4306ZM109.566 44.1101C109.055 44.1101 108.608 43.9929 108.227 43.7585C107.846 43.5241 107.55 43.1963 107.339 42.7749C107.129 42.3535 107.023 41.861 107.023 41.2976C107.023 40.7318 107.129 40.237 107.339 39.8132C107.55 39.3894 107.846 39.0604 108.227 38.826C108.608 38.5916 109.055 38.4744 109.566 38.4744C110.077 38.4744 110.524 38.5916 110.905 38.826C111.286 39.0604 111.582 39.3894 111.793 39.8132C112.003 40.237 112.109 40.7318 112.109 41.2976C112.109 41.861 112.003 42.3535 111.793 42.7749C111.582 43.1963 111.286 43.5241 110.905 43.7585C110.524 43.9929 110.077 44.1101 109.566 44.1101ZM109.57 43.2188C109.901 43.2188 110.176 43.1312 110.393 42.956C110.611 42.7808 110.772 42.5476 110.876 42.2564C110.983 41.9652 111.036 41.6444 111.036 41.294C111.036 40.946 110.983 40.6264 110.876 40.3352C110.772 40.0417 110.611 39.8061 110.393 39.6286C110.176 39.451 109.901 39.3622 109.57 39.3622C109.236 39.3622 108.959 39.451 108.739 39.6286C108.521 39.8061 108.359 40.0417 108.252 40.3352C108.148 40.6264 108.096 40.946 108.096 41.294C108.096 41.6444 108.148 41.9652 108.252 42.2564C108.359 42.5476 108.521 42.7808 108.739 42.956C108.959 43.1312 109.236 43.2188 109.57 43.2188ZM117.381 39.8771L116.419 40.0476C116.379 39.9245 116.315 39.8073 116.227 39.696C116.142 39.5848 116.026 39.4936 115.879 39.4226C115.732 39.3516 115.549 39.3161 115.329 39.3161C115.028 39.3161 114.777 39.3835 114.576 39.5185C114.375 39.651 114.274 39.8227 114.274 40.0334C114.274 40.2157 114.341 40.3625 114.476 40.4737C114.611 40.585 114.829 40.6761 115.13 40.7472L115.996 40.946C116.498 41.062 116.872 41.2408 117.118 41.4822C117.365 41.7237 117.488 42.0374 117.488 42.4233C117.488 42.75 117.393 43.0412 117.204 43.2969C117.017 43.5502 116.755 43.7491 116.419 43.8935C116.085 44.0379 115.698 44.1101 115.258 44.1101C114.647 44.1101 114.148 43.9799 113.763 43.7195C113.377 43.4567 113.14 43.0838 113.052 42.6009L114.079 42.4446C114.143 42.7121 114.274 42.9145 114.473 43.0518C114.672 43.1868 114.931 43.2543 115.251 43.2543C115.599 43.2543 115.877 43.1821 116.085 43.0376C116.293 42.8909 116.398 42.7121 116.398 42.5014C116.398 42.331 116.334 42.1877 116.206 42.0717C116.08 41.9557 115.887 41.8681 115.627 41.8089L114.704 41.6065C114.195 41.4905 113.818 41.3059 113.574 41.0526C113.333 40.7992 113.212 40.4785 113.212 40.0902C113.212 39.7682 113.302 39.4865 113.482 39.245C113.662 39.0036 113.911 38.8153 114.228 38.6804C114.545 38.5431 114.908 38.4744 115.318 38.4744C115.907 38.4744 116.372 38.6023 116.71 38.858C117.049 39.1113 117.272 39.451 117.381 39.8771ZM123.898 38.5455V39.3977H120.815V38.5455H123.898ZM121.66 44V37.9134C121.66 37.5724 121.735 37.2895 121.884 37.0646C122.033 36.8374 122.231 36.6681 122.477 36.5568C122.723 36.4432 122.991 36.3864 123.28 36.3864C123.493 36.3864 123.675 36.4041 123.827 36.4396C123.978 36.4728 124.09 36.5036 124.164 36.532L123.915 37.3913C123.866 37.3771 123.802 37.3606 123.724 37.3416C123.645 37.3203 123.551 37.3097 123.439 37.3097C123.181 37.3097 122.997 37.3736 122.885 37.5014C122.777 37.6293 122.722 37.8139 122.722 38.0554V44H121.66ZM127.129 44.1101C126.592 44.1101 126.129 43.9953 125.741 43.7656C125.355 43.5336 125.056 43.2081 124.846 42.7891C124.637 42.3677 124.533 41.8741 124.533 41.3082C124.533 40.7495 124.637 40.2571 124.846 39.831C125.056 39.4048 125.35 39.0722 125.726 38.8331C126.105 38.594 126.548 38.4744 127.055 38.4744C127.362 38.4744 127.661 38.5253 127.949 38.6271C128.238 38.7289 128.497 38.8887 128.727 39.1065C128.957 39.3243 129.138 39.6072 129.27 39.9553C129.403 40.3009 129.469 40.7211 129.469 41.2159V41.5923H125.133V40.7969H128.429C128.429 40.5175 128.372 40.2701 128.258 40.0547C128.145 39.8369 127.985 39.6652 127.779 39.5398C127.575 39.4143 127.336 39.3516 127.062 39.3516C126.763 39.3516 126.503 39.425 126.28 39.5717C126.06 39.7161 125.89 39.9055 125.769 40.1399C125.651 40.3719 125.591 40.6241 125.591 40.8963V41.5178C125.591 41.8823 125.655 42.1925 125.783 42.4482C125.913 42.7038 126.095 42.8991 126.327 43.0341C126.559 43.1667 126.83 43.233 127.14 43.233C127.341 43.233 127.524 43.2045 127.69 43.1477C127.856 43.0885 127.999 43.0009 128.12 42.8849C128.241 42.7689 128.333 42.6257 128.397 42.4553L129.402 42.6364C129.321 42.9323 129.177 43.1915 128.969 43.4141C128.763 43.6342 128.503 43.8059 128.191 43.929C127.881 44.0497 127.527 44.1101 127.129 44.1101ZM131.709 36.7273V44H130.647V36.7273H131.709ZM133.138 44V38.5455H134.199V44H133.138ZM133.674 37.7038C133.489 37.7038 133.331 37.6423 133.198 37.5192C133.068 37.3937 133.003 37.2446 133.003 37.0717C133.003 36.8965 133.068 36.7474 133.198 36.6243C133.331 36.4988 133.489 36.4361 133.674 36.4361C133.858 36.4361 134.016 36.4988 134.146 36.6243C134.279 36.7474 134.345 36.8965 134.345 37.0717C134.345 37.2446 134.279 37.3937 134.146 37.5192C134.016 37.6423 133.858 37.7038 133.674 37.7038ZM135.514 44V43.272L138.469 39.5185V39.4688H135.61V38.5455H139.793V39.3196L136.952 43.027V43.0767H139.893V44H135.514ZM143.34 44.1101C142.803 44.1101 142.34 43.9953 141.952 43.7656C141.566 43.5336 141.267 43.2081 141.057 42.7891C140.848 42.3677 140.744 41.8741 140.744 41.3082C140.744 40.7495 140.848 40.2571 141.057 39.831C141.267 39.4048 141.561 39.0722 141.937 38.8331C142.316 38.594 142.759 38.4744 143.265 38.4744C143.573 38.4744 143.872 38.5253 144.16 38.6271C144.449 38.7289 144.708 38.8887 144.938 39.1065C145.168 39.3243 145.349 39.6072 145.481 39.9553C145.614 40.3009 145.68 40.7211 145.68 41.2159V41.5923H141.344V40.7969H144.64C144.64 40.5175 144.583 40.2701 144.469 40.0547C144.356 39.8369 144.196 39.6652 143.99 39.5398C143.786 39.4143 143.547 39.3516 143.273 39.3516C142.974 39.3516 142.714 39.425 142.491 39.5717C142.271 39.7161 142.101 39.9055 141.98 40.1399C141.862 40.3719 141.802 40.6241 141.802 40.8963V41.5178C141.802 41.8823 141.866 42.1925 141.994 42.4482C142.124 42.7038 142.305 42.8991 142.537 43.0341C142.769 43.1667 143.041 43.233 143.351 43.233C143.552 43.233 143.735 43.2045 143.901 43.1477C144.067 43.0885 144.21 43.0009 144.331 42.8849C144.452 42.7689 144.544 42.6257 144.608 42.4553L145.613 42.6364C145.532 42.9323 145.388 43.1915 145.18 43.4141C144.974 43.6342 144.714 43.8059 144.402 43.929C144.092 44.0497 143.738 44.1101 143.34 44.1101ZM150.946 39.8771L149.983 40.0476C149.943 39.9245 149.879 39.8073 149.792 39.696C149.706 39.5848 149.59 39.4936 149.444 39.4226C149.297 39.3516 149.113 39.3161 148.893 39.3161C148.592 39.3161 148.342 39.3835 148.14 39.5185C147.939 39.651 147.838 39.8227 147.838 40.0334C147.838 40.2157 147.906 40.3625 148.041 40.4737C148.176 40.585 148.394 40.6761 148.694 40.7472L149.561 40.946C150.063 41.062 150.437 41.2408 150.683 41.4822C150.929 41.7237 151.052 42.0374 151.052 42.4233C151.052 42.75 150.958 43.0412 150.768 43.2969C150.581 43.5502 150.319 43.7491 149.983 43.8935C149.65 44.0379 149.262 44.1101 148.822 44.1101C148.211 44.1101 147.713 43.9799 147.327 43.7195C146.941 43.4567 146.704 43.0838 146.617 42.6009L147.643 42.4446C147.707 42.7121 147.838 42.9145 148.037 43.0518C148.236 43.1868 148.495 43.2543 148.815 43.2543C149.163 43.2543 149.441 43.1821 149.65 43.0376C149.858 42.8909 149.962 42.7121 149.962 42.5014C149.962 42.331 149.898 42.1877 149.77 42.0717C149.645 41.9557 149.452 41.8681 149.191 41.8089L148.268 41.6065C147.759 41.4905 147.383 41.3059 147.139 41.0526C146.897 40.7992 146.777 40.4785 146.777 40.0902C146.777 39.7682 146.867 39.4865 147.047 39.245C147.226 39.0036 147.475 38.8153 147.792 38.6804C148.109 38.5431 148.473 38.4744 148.882 38.4744C149.472 38.4744 149.936 38.6023 150.275 38.858C150.613 39.1113 150.837 39.451 150.946 39.8771ZM154.866 46.0455V38.5455H155.903V39.4297H155.992C156.053 39.3161 156.142 39.1847 156.258 39.0355C156.374 38.8864 156.535 38.7562 156.741 38.6449C156.947 38.5312 157.219 38.4744 157.558 38.4744C157.998 38.4744 158.391 38.5857 158.737 38.8082C159.083 39.0308 159.354 39.3516 159.55 39.7706C159.749 40.1896 159.848 40.6939 159.848 41.2834C159.848 41.8729 159.75 42.3783 159.554 42.7997C159.357 43.2187 159.087 43.5419 158.744 43.7692C158.401 43.9941 158.009 44.1065 157.569 44.1065C157.237 44.1065 156.966 44.0509 156.755 43.9396C156.547 43.8284 156.384 43.6982 156.265 43.549C156.147 43.3999 156.056 43.2673 155.992 43.1513H155.928V46.0455H154.866ZM155.907 41.2727C155.907 41.6562 155.962 41.9924 156.074 42.2812C156.185 42.5701 156.346 42.7962 156.556 42.9595C156.767 43.1205 157.025 43.201 157.331 43.201C157.648 43.201 157.913 43.117 158.126 42.9489C158.339 42.7784 158.5 42.5476 158.609 42.2564C158.72 41.9652 158.776 41.6373 158.776 41.2727C158.776 40.9129 158.721 40.5897 158.613 40.3033C158.506 40.0168 158.345 39.7907 158.13 39.625C157.917 39.4593 157.65 39.3764 157.331 39.3764C157.023 39.3764 156.762 39.4557 156.549 39.6143C156.339 39.773 156.179 39.9943 156.07 40.2784C155.961 40.5625 155.907 40.8939 155.907 41.2727ZM163.389 44.1101C162.851 44.1101 162.389 43.9953 162 43.7656C161.614 43.5336 161.316 43.2081 161.105 42.7891C160.897 42.3677 160.793 41.8741 160.793 41.3082C160.793 40.7495 160.897 40.2571 161.105 39.831C161.316 39.4048 161.61 39.0722 161.986 38.8331C162.365 38.594 162.808 38.4744 163.314 38.4744C163.622 38.4744 163.92 38.5253 164.209 38.6271C164.498 38.7289 164.757 38.8887 164.987 39.1065C165.217 39.3243 165.398 39.6072 165.53 39.9553C165.663 40.3009 165.729 40.7211 165.729 41.2159V41.5923H161.393V40.7969H164.689C164.689 40.5175 164.632 40.2701 164.518 40.0547C164.404 39.8369 164.245 39.6652 164.039 39.5398C163.835 39.4143 163.596 39.3516 163.321 39.3516C163.023 39.3516 162.763 39.425 162.54 39.5717C162.32 39.7161 162.15 39.9055 162.029 40.1399C161.91 40.3719 161.851 40.6241 161.851 40.8963V41.5178C161.851 41.8823 161.915 42.1925 162.043 42.4482C162.173 42.7038 162.354 42.8991 162.586 43.0341C162.818 43.1667 163.089 43.233 163.4 43.233C163.601 43.233 163.784 43.2045 163.95 43.1477C164.116 43.0885 164.259 43.0009 164.38 42.8849C164.5 42.7689 164.593 42.6257 164.657 42.4553L165.662 42.6364C165.581 42.9323 165.437 43.1915 165.228 43.4141C165.022 43.6342 164.763 43.8059 164.451 43.929C164.141 44.0497 163.787 44.1101 163.389 44.1101ZM167.969 36.7273V44H166.907V36.7273H167.969ZM170.985 44.1207C170.639 44.1207 170.327 44.0568 170.047 43.929C169.768 43.7988 169.547 43.6106 169.383 43.3643C169.222 43.1181 169.142 42.8163 169.142 42.4588C169.142 42.151 169.201 41.8977 169.319 41.6989C169.438 41.5 169.597 41.3426 169.799 41.2266C170 41.1106 170.225 41.023 170.473 40.9638C170.722 40.9046 170.975 40.8596 171.233 40.8288C171.56 40.791 171.825 40.7602 172.029 40.7365C172.232 40.7105 172.38 40.669 172.473 40.6122C172.565 40.5554 172.611 40.4631 172.611 40.3352V40.3104C172.611 40.0002 172.524 39.7599 172.348 39.5895C172.176 39.419 171.917 39.3338 171.574 39.3338C171.217 39.3338 170.935 39.4131 170.729 39.5717C170.525 39.728 170.385 39.902 170.306 40.0938L169.309 39.8665C169.427 39.535 169.6 39.2675 169.827 39.0639C170.057 38.858 170.321 38.7088 170.619 38.6165C170.917 38.5218 171.231 38.4744 171.56 38.4744C171.778 38.4744 172.009 38.5005 172.252 38.5526C172.499 38.6023 172.728 38.6946 172.941 38.8295C173.157 38.9645 173.333 39.1574 173.471 39.4084C173.608 39.657 173.676 39.9801 173.676 40.3778V44H172.64V43.2543H172.597C172.528 43.3916 172.425 43.5265 172.288 43.6591C172.151 43.7917 171.974 43.9018 171.759 43.9893C171.543 44.0769 171.285 44.1207 170.985 44.1207ZM171.216 43.2685C171.509 43.2685 171.76 43.2105 171.968 43.0945C172.179 42.9785 172.339 42.8269 172.448 42.6399C172.559 42.4505 172.615 42.2481 172.615 42.0327V41.3295C172.577 41.3674 172.503 41.4029 172.395 41.4361C172.288 41.4669 172.166 41.4941 172.029 41.5178C171.891 41.5391 171.758 41.5592 171.627 41.5781C171.497 41.5947 171.388 41.6089 171.301 41.6207C171.095 41.6468 170.907 41.6906 170.736 41.7521C170.568 41.8137 170.433 41.9025 170.331 42.0185C170.232 42.1321 170.182 42.2836 170.182 42.473C170.182 42.7358 170.279 42.9347 170.473 43.0696C170.667 43.2022 170.915 43.2685 171.216 43.2685ZM181.825 39.8771L180.862 40.0476C180.822 39.9245 180.758 39.8073 180.67 39.696C180.585 39.5848 180.469 39.4936 180.322 39.4226C180.176 39.3516 179.992 39.3161 179.772 39.3161C179.471 39.3161 179.22 39.3835 179.019 39.5185C178.818 39.651 178.717 39.8227 178.717 40.0334C178.717 40.2157 178.785 40.3625 178.92 40.4737C179.055 40.585 179.272 40.6761 179.573 40.7472L180.44 40.946C180.942 41.062 181.316 41.2408 181.562 41.4822C181.808 41.7237 181.931 42.0374 181.931 42.4233C181.931 42.75 181.836 43.0412 181.647 43.2969C181.46 43.5502 181.198 43.7491 180.862 43.8935C180.528 44.0379 180.141 44.1101 179.701 44.1101C179.09 44.1101 178.592 43.9799 178.206 43.7195C177.82 43.4567 177.583 43.0838 177.496 42.6009L178.522 42.4446C178.586 42.7121 178.717 42.9145 178.916 43.0518C179.115 43.1868 179.374 43.2543 179.694 43.2543C180.042 43.2543 180.32 43.1821 180.528 43.0376C180.737 42.8909 180.841 42.7121 180.841 42.5014C180.841 42.331 180.777 42.1877 180.649 42.0717C180.524 41.9557 180.331 41.8681 180.07 41.8089L179.147 41.6065C178.638 41.4905 178.262 41.3059 178.018 41.0526C177.776 40.7992 177.656 40.4785 177.656 40.0902C177.656 39.7682 177.746 39.4865 177.925 39.245C178.105 39.0036 178.354 38.8153 178.671 38.6804C178.988 38.5431 179.352 38.4744 179.761 38.4744C180.351 38.4744 180.815 38.6023 181.153 38.858C181.492 39.1113 181.716 39.451 181.825 39.8771ZM186.554 41.7379V38.5455H187.619V44H186.575V43.0554H186.518C186.393 43.3466 186.192 43.5893 185.915 43.7834C185.64 43.9751 185.298 44.071 184.888 44.071C184.538 44.071 184.228 43.9941 183.958 43.8402C183.69 43.6839 183.48 43.4531 183.326 43.1477C183.174 42.8423 183.099 42.4647 183.099 42.0149V38.5455H184.16V41.8871C184.16 42.2588 184.263 42.5547 184.469 42.7749C184.675 42.995 184.943 43.1051 185.272 43.1051C185.471 43.1051 185.668 43.0554 185.865 42.956C186.064 42.8565 186.228 42.7062 186.358 42.505C186.491 42.3037 186.556 42.0481 186.554 41.7379ZM190.633 44.1207C190.288 44.1207 189.975 44.0568 189.696 43.929C189.416 43.7988 189.195 43.6106 189.032 43.3643C188.871 43.1181 188.79 42.8163 188.79 42.4588C188.79 42.151 188.849 41.8977 188.968 41.6989C189.086 41.5 189.246 41.3426 189.447 41.2266C189.648 41.1106 189.873 41.023 190.122 40.9638C190.37 40.9046 190.624 40.8596 190.882 40.8288C191.208 40.791 191.474 40.7602 191.677 40.7365C191.881 40.7105 192.029 40.669 192.121 40.6122C192.213 40.5554 192.26 40.4631 192.26 40.3352V40.3104C192.26 40.0002 192.172 39.7599 191.997 39.5895C191.824 39.419 191.566 39.3338 191.223 39.3338C190.865 39.3338 190.583 39.4131 190.377 39.5717C190.174 39.728 190.033 39.902 189.955 40.0938L188.957 39.8665C189.075 39.535 189.248 39.2675 189.475 39.0639C189.705 38.858 189.969 38.7088 190.267 38.6165C190.566 38.5218 190.879 38.4744 191.208 38.4744C191.426 38.4744 191.657 38.5005 191.901 38.5526C192.147 38.6023 192.377 38.6946 192.59 38.8295C192.805 38.9645 192.982 39.1574 193.119 39.4084C193.256 39.657 193.325 39.9801 193.325 40.3778V44H192.288V43.2543H192.245C192.177 43.3916 192.074 43.5265 191.936 43.6591C191.799 43.7917 191.623 43.9018 191.407 43.9893C191.192 44.0769 190.934 44.1207 190.633 44.1207ZM190.864 43.2685C191.158 43.2685 191.408 43.2105 191.617 43.0945C191.828 42.9785 191.987 42.8269 192.096 42.6399C192.208 42.4505 192.263 42.2481 192.263 42.0327V41.3295C192.225 41.3674 192.152 41.4029 192.043 41.4361C191.936 41.4669 191.815 41.4941 191.677 41.5178C191.54 41.5391 191.406 41.5592 191.276 41.5781C191.146 41.5947 191.037 41.6089 190.949 41.6207C190.743 41.6468 190.555 41.6906 190.385 41.7521C190.217 41.8137 190.082 41.9025 189.98 42.0185C189.88 42.1321 189.831 42.2836 189.831 42.473C189.831 42.7358 189.928 42.9347 190.122 43.0696C190.316 43.2022 190.563 43.2685 190.864 43.2685ZM199.737 44.1101C199.199 44.1101 198.736 43.9953 198.348 43.7656C197.962 43.5336 197.664 43.2081 197.453 42.7891C197.245 42.3677 197.141 41.8741 197.141 41.3082C197.141 40.7495 197.245 40.2571 197.453 39.831C197.664 39.4048 197.957 39.0722 198.334 38.8331C198.713 38.594 199.155 38.4744 199.662 38.4744C199.97 38.4744 200.268 38.5253 200.557 38.6271C200.846 38.7289 201.105 38.8887 201.335 39.1065C201.564 39.3243 201.745 39.6072 201.878 39.9553C202.01 40.3009 202.077 40.7211 202.077 41.2159V41.5923H197.741V40.7969H201.036C201.036 40.5175 200.979 40.2701 200.866 40.0547C200.752 39.8369 200.592 39.6652 200.386 39.5398C200.183 39.4143 199.944 39.3516 199.669 39.3516C199.371 39.3516 199.11 39.425 198.888 39.5717C198.668 39.7161 198.497 39.9055 198.376 40.1399C198.258 40.3719 198.199 40.6241 198.199 40.8963V41.5178C198.199 41.8823 198.263 42.1925 198.391 42.4482C198.521 42.7038 198.702 42.8991 198.934 43.0341C199.166 43.1667 199.437 43.233 199.747 43.233C199.948 43.233 200.132 43.2045 200.298 43.1477C200.463 43.0885 200.607 43.0009 200.727 42.8849C200.848 42.7689 200.94 42.6257 201.004 42.4553L202.009 42.6364C201.929 42.9323 201.784 43.1915 201.576 43.4141C201.37 43.6342 201.111 43.8059 200.798 43.929C200.488 44.0497 200.134 44.1101 199.737 44.1101ZM207.342 39.8771L206.38 40.0476C206.34 39.9245 206.276 39.8073 206.188 39.696C206.103 39.5848 205.987 39.4936 205.84 39.4226C205.693 39.3516 205.51 39.3161 205.29 39.3161C204.989 39.3161 204.738 39.3835 204.537 39.5185C204.336 39.651 204.235 39.8227 204.235 40.0334C204.235 40.2157 204.302 40.3625 204.437 40.4737C204.572 40.585 204.79 40.6761 205.091 40.7472L205.957 40.946C206.459 41.062 206.833 41.2408 207.079 41.4822C207.326 41.7237 207.449 42.0374 207.449 42.4233C207.449 42.75 207.354 43.0412 207.165 43.2969C206.978 43.5502 206.716 43.7491 206.38 43.8935C206.046 44.0379 205.659 44.1101 205.219 44.1101C204.608 44.1101 204.109 43.9799 203.724 43.7195C203.338 43.4567 203.101 43.0838 203.013 42.6009L204.04 42.4446C204.104 42.7121 204.235 42.9145 204.434 43.0518C204.633 43.1868 204.892 43.2543 205.211 43.2543C205.559 43.2543 205.838 43.1821 206.046 43.0376C206.254 42.8909 206.358 42.7121 206.358 42.5014C206.358 42.331 206.295 42.1877 206.167 42.0717C206.041 41.9557 205.848 41.8681 205.588 41.8089L204.665 41.6065C204.156 41.4905 203.779 41.3059 203.535 41.0526C203.294 40.7992 203.173 40.4785 203.173 40.0902C203.173 39.7682 203.263 39.4865 203.443 39.245C203.623 39.0036 203.872 38.8153 204.189 38.6804C204.506 38.5431 204.869 38.4744 205.279 38.4744C205.868 38.4744 206.332 38.6023 206.671 38.858C207.01 39.1113 207.233 39.451 207.342 39.8771ZM210.914 44.1101C210.386 44.1101 209.931 43.9905 209.55 43.7514C209.171 43.5099 208.88 43.1773 208.676 42.7536C208.473 42.3298 208.371 41.8445 208.371 41.2976C208.371 40.7436 208.475 40.2547 208.684 39.831C208.892 39.4048 209.185 39.0722 209.564 38.8331C209.943 38.594 210.389 38.4744 210.903 38.4744C211.317 38.4744 211.687 38.5514 212.011 38.7053C212.335 38.8568 212.597 39.0698 212.796 39.3445C212.997 39.6191 213.117 39.9399 213.154 40.3068H212.121C212.064 40.0511 211.934 39.831 211.73 39.6463C211.529 39.4616 211.259 39.3693 210.921 39.3693C210.625 39.3693 210.366 39.4474 210.143 39.6037C209.923 39.7576 209.751 39.9777 209.628 40.2642C209.505 40.5483 209.444 40.8845 209.444 41.2727C209.444 41.6705 209.504 42.0137 209.625 42.3026C209.745 42.5914 209.916 42.8151 210.136 42.9737C210.359 43.1323 210.62 43.2116 210.921 43.2116C211.122 43.2116 211.304 43.175 211.468 43.1016C211.633 43.0258 211.772 42.9181 211.883 42.7784C211.997 42.6387 212.076 42.4706 212.121 42.2741H213.154C213.117 42.6269 213.002 42.9418 212.81 43.2188C212.618 43.4957 212.361 43.7135 212.039 43.8722C211.72 44.0308 211.345 44.1101 210.914 44.1101ZM216.588 44.1101C216.076 44.1101 215.63 43.9929 215.249 43.7585C214.868 43.5241 214.572 43.1963 214.361 42.7749C214.15 42.3535 214.045 41.861 214.045 41.2976C214.045 40.7318 214.15 40.237 214.361 39.8132C214.572 39.3894 214.868 39.0604 215.249 38.826C215.63 38.5916 216.076 38.4744 216.588 38.4744C217.099 38.4744 217.545 38.5916 217.926 38.826C218.307 39.0604 218.603 39.3894 218.814 39.8132C219.025 40.237 219.13 40.7318 219.13 41.2976C219.13 41.861 219.025 42.3535 218.814 42.7749C218.603 43.1963 218.307 43.5241 217.926 43.7585C217.545 43.9929 217.099 44.1101 216.588 44.1101ZM216.591 43.2188C216.923 43.2188 217.197 43.1312 217.415 42.956C217.633 42.7808 217.794 42.5476 217.898 42.2564C218.004 41.9652 218.058 41.6444 218.058 41.294C218.058 40.946 218.004 40.6264 217.898 40.3352C217.794 40.0417 217.633 39.8061 217.415 39.6286C217.197 39.451 216.923 39.3622 216.591 39.3622C216.257 39.3622 215.98 39.451 215.76 39.6286C215.542 39.8061 215.38 40.0417 215.274 40.3352C215.169 40.6264 215.117 40.946 215.117 41.294C215.117 41.6444 215.169 41.9652 215.274 42.2564C215.38 42.5476 215.542 42.7808 215.76 42.956C215.98 43.1312 216.257 43.2188 216.591 43.2188ZM221.377 36.7273V44H220.315V36.7273H221.377ZM223.867 40.7614V44H222.806V36.7273H223.853V39.4332H223.921C224.048 39.1397 224.244 38.9065 224.507 38.7337C224.769 38.5608 225.113 38.4744 225.536 38.4744C225.91 38.4744 226.237 38.5514 226.517 38.7053C226.798 38.8591 227.016 39.0888 227.17 39.3942C227.326 39.6972 227.404 40.076 227.404 40.5305V44H226.343V40.6584C226.343 40.2583 226.24 39.9482 226.034 39.728C225.828 39.5054 225.541 39.3942 225.174 39.3942C224.923 39.3942 224.698 39.4474 224.499 39.554C224.303 39.6605 224.148 39.8168 224.034 40.0227C223.923 40.2263 223.867 40.4725 223.867 40.7614ZM230.409 44.1207C230.063 44.1207 229.75 44.0568 229.471 43.929C229.192 43.7988 228.97 43.6106 228.807 43.3643C228.646 43.1181 228.566 42.8163 228.566 42.4588C228.566 42.151 228.625 41.8977 228.743 41.6989C228.861 41.5 229.021 41.3426 229.222 41.2266C229.424 41.1106 229.649 41.023 229.897 40.9638C230.146 40.9046 230.399 40.8596 230.657 40.8288C230.984 40.791 231.249 40.7602 231.453 40.7365C231.656 40.7105 231.804 40.669 231.896 40.6122C231.989 40.5554 232.035 40.4631 232.035 40.3352V40.3104C232.035 40.0002 231.947 39.7599 231.772 39.5895C231.599 39.419 231.341 39.3338 230.998 39.3338C230.641 39.3338 230.359 39.4131 230.153 39.5717C229.949 39.728 229.808 39.902 229.73 40.0938L228.732 39.8665C228.851 39.535 229.024 39.2675 229.251 39.0639C229.481 38.858 229.744 38.7088 230.043 38.6165C230.341 38.5218 230.655 38.4744 230.984 38.4744C231.202 38.4744 231.432 38.5005 231.676 38.5526C231.923 38.6023 232.152 38.6946 232.365 38.8295C232.581 38.9645 232.757 39.1574 232.894 39.4084C233.032 39.657 233.1 39.9801 233.1 40.3778V44H232.063V43.2543H232.021C231.952 43.3916 231.849 43.5265 231.712 43.6591C231.575 43.7917 231.398 43.9018 231.183 43.9893C230.967 44.0769 230.709 44.1207 230.409 44.1207ZM230.639 43.2685C230.933 43.2685 231.184 43.2105 231.392 43.0945C231.603 42.9785 231.763 42.8269 231.872 42.6399C231.983 42.4505 232.039 42.2481 232.039 42.0327V41.3295C232.001 41.3674 231.927 41.4029 231.818 41.4361C231.712 41.4669 231.59 41.4941 231.453 41.5178C231.315 41.5391 231.182 41.5592 231.051 41.5781C230.921 41.5947 230.812 41.6089 230.725 41.6207C230.519 41.6468 230.33 41.6906 230.16 41.7521C229.992 41.8137 229.857 41.9025 229.755 42.0185C229.656 42.1321 229.606 42.2836 229.606 42.473C229.606 42.7358 229.703 42.9347 229.897 43.0696C230.091 43.2022 230.339 43.2685 230.639 43.2685ZM235.896 43.0057L235.843 43.3928C235.807 43.6768 235.747 43.9728 235.662 44.2805C235.579 44.5907 235.492 44.8783 235.402 45.1435C235.315 45.4086 235.243 45.6193 235.186 45.7756H234.433C234.464 45.6288 234.506 45.4299 234.561 45.179C234.615 44.9304 234.668 44.6522 234.721 44.3445C234.773 44.0367 234.812 43.723 234.838 43.4034L234.873 43.0057H235.896ZM243.607 46.0455V43.1513H243.543C243.479 43.2673 243.387 43.3999 243.266 43.549C243.148 43.6982 242.985 43.8284 242.776 43.9396C242.568 44.0509 242.298 44.1065 241.967 44.1065C241.526 44.1065 241.133 43.9941 240.788 43.7692C240.444 43.5419 240.174 43.2187 239.978 42.7997C239.784 42.3783 239.687 41.8729 239.687 41.2834C239.687 40.6939 239.785 40.1896 239.982 39.7706C240.18 39.3516 240.453 39.0308 240.798 38.8082C241.144 38.5857 241.536 38.4744 241.974 38.4744C242.312 38.4744 242.585 38.5312 242.79 38.6449C242.999 38.7562 243.16 38.8864 243.273 39.0355C243.389 39.1847 243.479 39.3161 243.543 39.4297H243.632V38.5455H244.669V46.0455H243.607ZM242.201 43.201C242.506 43.201 242.764 43.1205 242.975 42.9595C243.188 42.7962 243.349 42.5701 243.458 42.2812C243.569 41.9924 243.625 41.6562 243.625 41.2727C243.625 40.8939 243.571 40.5625 243.462 40.2784C243.353 39.9943 243.193 39.773 242.982 39.6143C242.772 39.4557 242.511 39.3764 242.201 39.3764C241.881 39.3764 241.615 39.4593 241.402 39.625C241.189 39.7907 241.028 40.0168 240.919 40.3033C240.813 40.5897 240.759 40.9129 240.759 41.2727C240.759 41.6373 240.814 41.9652 240.923 42.2564C241.031 42.5476 241.192 42.7784 241.406 42.9489C241.621 43.117 241.886 43.201 242.201 43.201ZM249.552 41.7379V38.5455H250.617V44H249.573V43.0554H249.516C249.391 43.3466 249.19 43.5893 248.913 43.7834C248.638 43.9751 248.296 44.071 247.886 44.071C247.536 44.071 247.226 43.9941 246.956 43.8402C246.688 43.6839 246.478 43.4531 246.324 43.1477C246.172 42.8423 246.097 42.4647 246.097 42.0149V38.5455H247.158V41.8871C247.158 42.2588 247.261 42.5547 247.467 42.7749C247.673 42.995 247.941 43.1051 248.27 43.1051C248.469 43.1051 248.666 43.0554 248.863 42.956C249.062 42.8565 249.226 42.7062 249.357 42.505C249.489 42.3037 249.554 42.0481 249.552 41.7379ZM254.395 44.1101C253.857 44.1101 253.394 43.9953 253.006 43.7656C252.62 43.5336 252.322 43.2081 252.111 42.7891C251.903 42.3677 251.799 41.8741 251.799 41.3082C251.799 40.7495 251.903 40.2571 252.111 39.831C252.322 39.4048 252.616 39.0722 252.992 38.8331C253.371 38.594 253.814 38.4744 254.32 38.4744C254.628 38.4744 254.926 38.5253 255.215 38.6271C255.504 38.7289 255.763 38.8887 255.993 39.1065C256.222 39.3243 256.403 39.6072 256.536 39.9553C256.669 40.3009 256.735 40.7211 256.735 41.2159V41.5923H252.399V40.7969H255.694C255.694 40.5175 255.638 40.2701 255.524 40.0547C255.41 39.8369 255.251 39.6652 255.045 39.5398C254.841 39.4143 254.602 39.3516 254.327 39.3516C254.029 39.3516 253.769 39.425 253.546 39.5717C253.326 39.7161 253.155 39.9055 253.035 40.1399C252.916 40.3719 252.857 40.6241 252.857 40.8963V41.5178C252.857 41.8823 252.921 42.1925 253.049 42.4482C253.179 42.7038 253.36 42.8991 253.592 43.0341C253.824 43.1667 254.095 43.233 254.405 43.233C254.607 43.233 254.79 43.2045 254.956 43.1477C255.122 43.0885 255.265 43.0009 255.385 42.8849C255.506 42.7689 255.599 42.6257 255.662 42.4553L256.667 42.6364C256.587 42.9323 256.443 43.1915 256.234 43.4141C256.028 43.6342 255.769 43.8059 255.456 43.929C255.146 44.0497 254.792 44.1101 254.395 44.1101ZM264.647 39.8771L263.684 40.0476C263.644 39.9245 263.58 39.8073 263.493 39.696C263.407 39.5848 263.291 39.4936 263.145 39.4226C262.998 39.3516 262.814 39.3161 262.594 39.3161C262.294 39.3161 262.043 39.3835 261.841 39.5185C261.64 39.651 261.54 39.8227 261.54 40.0334C261.54 40.2157 261.607 40.3625 261.742 40.4737C261.877 40.585 262.095 40.6761 262.395 40.7472L263.262 40.946C263.764 41.062 264.138 41.2408 264.384 41.4822C264.63 41.7237 264.753 42.0374 264.753 42.4233C264.753 42.75 264.659 43.0412 264.469 43.2969C264.282 43.5502 264.021 43.7491 263.684 43.8935C263.351 44.0379 262.964 44.1101 262.523 44.1101C261.912 44.1101 261.414 43.9799 261.028 43.7195C260.642 43.4567 260.406 43.0838 260.318 42.6009L261.344 42.4446C261.408 42.7121 261.54 42.9145 261.738 43.0518C261.937 43.1868 262.197 43.2543 262.516 43.2543C262.864 43.2543 263.142 43.1821 263.351 43.0376C263.559 42.8909 263.663 42.7121 263.663 42.5014C263.663 42.331 263.599 42.1877 263.471 42.0717C263.346 41.9557 263.153 41.8681 262.893 41.8089L261.969 41.6065C261.46 41.4905 261.084 41.3059 260.84 41.0526C260.599 40.7992 260.478 40.4785 260.478 40.0902C260.478 39.7682 260.568 39.4865 260.748 39.245C260.928 39.0036 261.176 38.8153 261.493 38.6804C261.811 38.5431 262.174 38.4744 262.584 38.4744C263.173 38.4744 263.637 38.6023 263.976 38.858C264.314 39.1113 264.538 39.451 264.647 39.8771ZM268.272 44.1101C267.734 44.1101 267.271 43.9953 266.883 43.7656C266.497 43.5336 266.199 43.2081 265.988 42.7891C265.78 42.3677 265.676 41.8741 265.676 41.3082C265.676 40.7495 265.78 40.2571 265.988 39.831C266.199 39.4048 266.493 39.0722 266.869 38.8331C267.248 38.594 267.69 38.4744 268.197 38.4744C268.505 38.4744 268.803 38.5253 269.092 38.6271C269.381 38.7289 269.64 38.8887 269.87 39.1065C270.099 39.3243 270.28 39.6072 270.413 39.9553C270.546 40.3009 270.612 40.7211 270.612 41.2159V41.5923H266.276V40.7969H269.571C269.571 40.5175 269.515 40.2701 269.401 40.0547C269.287 39.8369 269.127 39.6652 268.922 39.5398C268.718 39.4143 268.479 39.3516 268.204 39.3516C267.906 39.3516 267.645 39.425 267.423 39.5717C267.203 39.7161 267.032 39.9055 266.912 40.1399C266.793 40.3719 266.734 40.6241 266.734 40.8963V41.5178C266.734 41.8823 266.798 42.1925 266.926 42.4482C267.056 42.7038 267.237 42.8991 267.469 43.0341C267.701 43.1667 267.972 43.233 268.282 43.233C268.484 43.233 268.667 43.2045 268.833 43.1477C268.998 43.0885 269.142 43.0009 269.262 42.8849C269.383 42.7689 269.475 42.6257 269.539 42.4553L270.544 42.6364C270.464 42.9323 270.319 43.1915 270.111 43.4141C269.905 43.6342 269.646 43.8059 269.333 43.929C269.023 44.0497 268.669 44.1101 268.272 44.1101ZM275.245 41.7379V38.5455H276.311V44H275.267V43.0554H275.21C275.084 43.3466 274.883 43.5893 274.606 43.7834C274.331 43.9751 273.989 44.071 273.58 44.071C273.229 44.071 272.919 43.9941 272.649 43.8402C272.382 43.6839 272.171 43.4531 272.017 43.1477C271.866 42.8423 271.79 42.4647 271.79 42.0149V38.5455H272.852V41.8871C272.852 42.2588 272.955 42.5547 273.161 42.7749C273.367 42.995 273.634 43.1051 273.963 43.1051C274.162 43.1051 274.36 43.0554 274.556 42.956C274.755 42.8565 274.92 42.7062 275.05 42.505C275.182 42.3037 275.248 42.0481 275.245 41.7379ZM80.3011 56.1207C79.9555 56.1207 79.643 56.0568 79.3636 55.929C79.0843 55.7988 78.8629 55.6106 78.6996 55.3643C78.5386 55.1181 78.4581 54.8163 78.4581 54.4588C78.4581 54.151 78.5173 53.8977 78.6357 53.6989C78.754 53.5 78.9138 53.3426 79.1151 53.2266C79.3163 53.1106 79.5412 53.023 79.7898 52.9638C80.0384 52.9046 80.2917 52.8596 80.5497 52.8288C80.8764 52.791 81.1416 52.7602 81.3452 52.7365C81.5488 52.7105 81.6967 52.669 81.7891 52.6122C81.8814 52.5554 81.9276 52.4631 81.9276 52.3352V52.3104C81.9276 52.0002 81.84 51.7599 81.6648 51.5895C81.492 51.419 81.2339 51.3338 80.8906 51.3338C80.5331 51.3338 80.2514 51.4131 80.0455 51.5717C79.8419 51.728 79.701 51.902 79.6229 52.0938L78.625 51.8665C78.7434 51.535 78.9162 51.2675 79.1435 51.0639C79.3731 50.858 79.6371 50.7088 79.9354 50.6165C80.2337 50.5218 80.5473 50.4744 80.8764 50.4744C81.0942 50.4744 81.325 50.5005 81.5689 50.5526C81.8151 50.6023 82.0447 50.6946 82.2578 50.8295C82.4732 50.9645 82.6496 51.1574 82.7869 51.4084C82.9242 51.657 82.9929 51.9801 82.9929 52.3778V56H81.956V55.2543H81.9134C81.8447 55.3916 81.7417 55.5265 81.6044 55.6591C81.4671 55.7917 81.2907 55.9018 81.0753 55.9893C80.8598 56.0769 80.6018 56.1207 80.3011 56.1207ZM80.532 55.2685C80.8255 55.2685 81.0765 55.2105 81.2848 55.0945C81.4955 54.9785 81.6553 54.8269 81.7642 54.6399C81.8755 54.4505 81.9311 54.2481 81.9311 54.0327V53.3295C81.8932 53.3674 81.8198 53.4029 81.7109 53.4361C81.6044 53.4669 81.4825 53.4941 81.3452 53.5178C81.2079 53.5391 81.0741 53.5592 80.9439 53.5781C80.8137 53.5947 80.7048 53.6089 80.6172 53.6207C80.4112 53.6468 80.223 53.6906 80.0526 53.7521C79.8845 53.8137 79.7495 53.9025 79.6477 54.0185C79.5483 54.1321 79.4986 54.2836 79.4986 54.473C79.4986 54.7358 79.5956 54.9347 79.7898 55.0696C79.9839 55.2022 80.2313 55.2685 80.532 55.2685ZM84.4071 56V50.5455H85.4263V51.4332H85.4938C85.6074 51.1326 85.7933 50.8982 86.0513 50.7301C86.3094 50.5597 86.6183 50.4744 86.9782 50.4744C87.3427 50.4744 87.6481 50.5597 87.8944 50.7301C88.1429 50.9006 88.3264 51.1349 88.4448 51.4332H88.5016C88.6318 51.142 88.839 50.91 89.123 50.7372C89.4071 50.562 89.7457 50.4744 90.1387 50.4744C90.6335 50.4744 91.0371 50.6295 91.3496 50.9396C91.6645 51.2498 91.8219 51.7173 91.8219 52.3423V56H90.7601V52.4418C90.7601 52.0724 90.6595 51.8049 90.4583 51.6392C90.257 51.4735 90.0167 51.3906 89.7374 51.3906C89.3917 51.3906 89.123 51.4972 88.9313 51.7102C88.7395 51.9209 88.6436 52.192 88.6436 52.5234V56H87.5854V52.3743C87.5854 52.0784 87.4931 51.8404 87.3084 51.6605C87.1238 51.4806 86.8835 51.3906 86.5875 51.3906C86.3863 51.3906 86.2005 51.4439 86.03 51.5504C85.8619 51.6546 85.7258 51.8002 85.6216 51.9872C85.5198 52.1742 85.4689 52.3909 85.4689 52.6371V56H84.4071ZM93.3303 56V48.7273H94.392V51.4297H94.456C94.5175 51.3161 94.6063 51.1847 94.7223 51.0355C94.8383 50.8864 94.9993 50.7562 95.2053 50.6449C95.4112 50.5312 95.6835 50.4744 96.022 50.4744C96.4624 50.4744 96.8554 50.5857 97.201 50.8082C97.5466 51.0308 97.8177 51.3516 98.0142 51.7706C98.2131 52.1896 98.3125 52.6939 98.3125 53.2834C98.3125 53.8729 98.2143 54.3783 98.0178 54.7997C97.8213 55.2187 97.5514 55.5419 97.2081 55.7692C96.8648 55.9941 96.473 56.1065 96.0327 56.1065C95.7012 56.1065 95.4302 56.0509 95.2195 55.9396C95.0111 55.8284 94.8478 55.6982 94.7294 55.549C94.611 55.3999 94.5199 55.2673 94.456 55.1513H94.3672V56H93.3303ZM94.3707 53.2727C94.3707 53.6562 94.4264 53.9924 94.5376 54.2812C94.6489 54.5701 94.8099 54.7962 95.0206 54.9595C95.2313 55.1205 95.4893 55.201 95.7947 55.201C96.112 55.201 96.3771 55.117 96.5902 54.9489C96.8033 54.7784 96.9643 54.5476 97.0732 54.2564C97.1844 53.9652 97.2401 53.6373 97.2401 53.2727C97.2401 52.9129 97.1856 52.5897 97.0767 52.3033C96.9702 52.0168 96.8092 51.7907 96.5938 51.625C96.3807 51.4593 96.1143 51.3764 95.7947 51.3764C95.487 51.3764 95.2266 51.4557 95.0135 51.6143C94.8028 51.773 94.643 51.9943 94.5341 52.2784C94.4252 52.5625 94.3707 52.8939 94.3707 53.2727ZM99.5048 56V50.5455H100.567V56H99.5048ZM100.041 49.7038C99.8564 49.7038 99.6977 49.6423 99.5652 49.5192C99.435 49.3937 99.3699 49.2446 99.3699 49.0717C99.3699 48.8965 99.435 48.7474 99.5652 48.6243C99.6977 48.4988 99.8564 48.4361 100.041 48.4361C100.226 48.4361 100.383 48.4988 100.513 48.6243C100.646 48.7474 100.712 48.8965 100.712 49.0717C100.712 49.2446 100.646 49.3937 100.513 49.5192C100.383 49.6423 100.226 49.7038 100.041 49.7038ZM104.346 56.1101C103.808 56.1101 103.346 55.9953 102.957 55.7656C102.571 55.5336 102.273 55.2081 102.062 54.7891C101.854 54.3677 101.75 53.8741 101.75 53.3082C101.75 52.7495 101.854 52.2571 102.062 51.831C102.273 51.4048 102.567 51.0722 102.943 50.8331C103.322 50.594 103.765 50.4744 104.271 50.4744C104.579 50.4744 104.877 50.5253 105.166 50.6271C105.455 50.7289 105.714 50.8887 105.944 51.1065C106.174 51.3243 106.355 51.6072 106.487 51.9553C106.62 52.3009 106.686 52.7211 106.686 53.2159V53.5923H102.35V52.7969H105.646C105.646 52.5175 105.589 52.2701 105.475 52.0547C105.362 51.8369 105.202 51.6652 104.996 51.5398C104.792 51.4143 104.553 51.3516 104.278 51.3516C103.98 51.3516 103.72 51.425 103.497 51.5717C103.277 51.7161 103.107 51.9055 102.986 52.1399C102.867 52.3719 102.808 52.6241 102.808 52.8963V53.5178C102.808 53.8823 102.872 54.1925 103 54.4482C103.13 54.7038 103.311 54.8991 103.543 55.0341C103.775 55.1667 104.046 55.233 104.357 55.233C104.558 55.233 104.741 55.2045 104.907 55.1477C105.073 55.0885 105.216 55.0009 105.337 54.8849C105.457 54.7689 105.55 54.6257 105.614 54.4553L106.619 54.6364C106.538 54.9323 106.394 55.1915 106.185 55.4141C105.979 55.6342 105.72 55.8059 105.408 55.929C105.098 56.0497 104.744 56.1101 104.346 56.1101ZM108.926 52.7614V56H107.864V50.5455H108.883V51.4332H108.951C109.076 51.1444 109.273 50.9124 109.54 50.7372C109.81 50.562 110.15 50.4744 110.559 50.4744C110.931 50.4744 111.257 50.5526 111.536 50.7088C111.815 50.8627 112.032 51.0923 112.186 51.3977C112.34 51.7031 112.417 52.0807 112.417 52.5305V56H111.355V52.6584C111.355 52.263 111.252 51.9541 111.046 51.7315C110.84 51.5066 110.557 51.3942 110.197 51.3942C109.951 51.3942 109.732 51.4474 109.54 51.554C109.351 51.6605 109.201 51.8168 109.089 52.0227C108.98 52.2263 108.926 52.4725 108.926 52.7614ZM116.387 50.5455V51.3977H113.407V50.5455H116.387ZM114.206 49.2386H115.268V54.3984C115.268 54.6044 115.299 54.7595 115.361 54.8636C115.422 54.9654 115.501 55.0353 115.599 55.0732C115.698 55.1087 115.806 55.1264 115.922 55.1264C116.007 55.1264 116.081 55.1205 116.145 55.1087C116.209 55.0968 116.259 55.0874 116.295 55.0803L116.486 55.9574C116.425 55.9811 116.337 56.0047 116.224 56.0284C116.11 56.0545 115.968 56.0687 115.797 56.071C115.518 56.0758 115.258 56.026 115.016 55.9219C114.775 55.8177 114.579 55.6567 114.43 55.4389C114.281 55.2211 114.206 54.9477 114.206 54.6186V49.2386ZM119.854 56.1101C119.316 56.1101 118.853 55.9953 118.465 55.7656C118.079 55.5336 117.781 55.2081 117.57 54.7891C117.362 54.3677 117.258 53.8741 117.258 53.3082C117.258 52.7495 117.362 52.2571 117.57 51.831C117.781 51.4048 118.075 51.0722 118.451 50.8331C118.83 50.594 119.272 50.4744 119.779 50.4744C120.087 50.4744 120.385 50.5253 120.674 50.6271C120.963 50.7289 121.222 50.8887 121.452 51.1065C121.681 51.3243 121.862 51.6072 121.995 51.9553C122.128 52.3009 122.194 52.7211 122.194 53.2159V53.5923H117.858V52.7969H121.153C121.153 52.5175 121.097 52.2701 120.983 52.0547C120.869 51.8369 120.71 51.6652 120.504 51.5398C120.3 51.4143 120.061 51.3516 119.786 51.3516C119.488 51.3516 119.228 51.425 119.005 51.5717C118.785 51.7161 118.614 51.9055 118.494 52.1399C118.375 52.3719 118.316 52.6241 118.316 52.8963V53.5178C118.316 53.8823 118.38 54.1925 118.508 54.4482C118.638 54.7038 118.819 54.8991 119.051 55.0341C119.283 55.1667 119.554 55.233 119.864 55.233C120.066 55.233 120.249 55.2045 120.415 55.1477C120.58 55.0885 120.724 55.0009 120.844 54.8849C120.965 54.7689 121.058 54.6257 121.121 54.4553L122.126 54.6364C122.046 54.9323 121.902 55.1915 121.693 55.4141C121.487 55.6342 121.228 55.8059 120.915 55.929C120.605 56.0497 120.251 56.1101 119.854 56.1101ZM128.614 50.5455V51.3977H125.532V50.5455H128.614ZM126.377 56V49.9134C126.377 49.5724 126.452 49.2895 126.601 49.0646C126.75 48.8374 126.948 48.6681 127.194 48.5568C127.44 48.4432 127.708 48.3864 127.996 48.3864C128.21 48.3864 128.392 48.4041 128.543 48.4396C128.695 48.4728 128.807 48.5036 128.881 48.532L128.632 49.3913C128.582 49.3771 128.518 49.3606 128.44 49.3416C128.362 49.3203 128.268 49.3097 128.156 49.3097C127.898 49.3097 127.714 49.3736 127.602 49.5014C127.493 49.6293 127.439 49.8139 127.439 50.0554V56H126.377ZM129.71 56V50.5455H130.772V56H129.71ZM130.246 49.7038C130.061 49.7038 129.903 49.6423 129.77 49.5192C129.64 49.3937 129.575 49.2446 129.575 49.0717C129.575 48.8965 129.64 48.7474 129.77 48.6243C129.903 48.4988 130.061 48.4361 130.246 48.4361C130.431 48.4361 130.588 48.4988 130.718 48.6243C130.851 48.7474 130.917 48.8965 130.917 49.0717C130.917 49.2446 130.851 49.3937 130.718 49.5192C130.588 49.6423 130.431 49.7038 130.246 49.7038ZM135.883 58.0455V55.1513H135.819C135.755 55.2673 135.662 55.3999 135.542 55.549C135.423 55.6982 135.26 55.8284 135.052 55.9396C134.843 56.0509 134.573 56.1065 134.242 56.1065C133.802 56.1065 133.409 55.9941 133.063 55.7692C132.72 55.5419 132.45 55.2187 132.253 54.7997C132.059 54.3783 131.962 53.8729 131.962 53.2834C131.962 52.6939 132.06 52.1896 132.257 51.7706C132.456 51.3516 132.728 51.0308 133.074 50.8082C133.419 50.5857 133.811 50.4744 134.249 50.4744C134.588 50.4744 134.86 50.5312 135.066 50.6449C135.274 50.7562 135.435 50.8864 135.549 51.0355C135.665 51.1847 135.755 51.3161 135.819 51.4297H135.907V50.5455H136.944V58.0455H135.883ZM134.476 55.201C134.782 55.201 135.04 55.1205 135.251 54.9595C135.464 54.7962 135.625 54.5701 135.733 54.2812C135.845 53.9924 135.9 53.6562 135.9 53.2727C135.9 52.8939 135.846 52.5625 135.737 52.2784C135.628 51.9943 135.468 51.773 135.258 51.6143C135.047 51.4557 134.787 51.3764 134.476 51.3764C134.157 51.3764 133.89 51.4593 133.677 51.625C133.464 51.7907 133.303 52.0168 133.194 52.3033C133.088 52.5897 133.035 52.9129 133.035 53.2727C133.035 53.6373 133.089 53.9652 133.198 54.2564C133.307 54.5476 133.468 54.7784 133.681 54.9489C133.896 55.117 134.162 55.201 134.476 55.201ZM141.827 53.7379V50.5455H142.893V56H141.849V55.0554H141.792C141.666 55.3466 141.465 55.5893 141.188 55.7834C140.913 55.9751 140.571 56.071 140.162 56.071C139.811 56.071 139.501 55.9941 139.231 55.8402C138.964 55.6839 138.753 55.4531 138.599 55.1477C138.448 54.8423 138.372 54.4647 138.372 54.0149V50.5455H139.434V53.8871C139.434 54.2588 139.537 54.5547 139.743 54.7749C139.949 54.995 140.216 55.1051 140.545 55.1051C140.744 55.1051 140.942 55.0554 141.138 54.956C141.337 54.8565 141.502 54.7062 141.632 54.505C141.765 54.3037 141.83 54.0481 141.827 53.7379ZM146.67 56.1101C146.133 56.1101 145.67 55.9953 145.282 55.7656C144.896 55.5336 144.597 55.2081 144.387 54.7891C144.178 54.3677 144.074 53.8741 144.074 53.3082C144.074 52.7495 144.178 52.2571 144.387 51.831C144.597 51.4048 144.891 51.0722 145.267 50.8331C145.646 50.594 146.089 50.4744 146.596 50.4744C146.903 50.4744 147.202 50.5253 147.49 50.6271C147.779 50.7289 148.038 50.8887 148.268 51.1065C148.498 51.3243 148.679 51.6072 148.811 51.9553C148.944 52.3009 149.01 52.7211 149.01 53.2159V53.5923H144.674V52.7969H147.97C147.97 52.5175 147.913 52.2701 147.799 52.0547C147.686 51.8369 147.526 51.6652 147.32 51.5398C147.116 51.4143 146.877 51.3516 146.603 51.3516C146.304 51.3516 146.044 51.425 145.821 51.5717C145.601 51.7161 145.431 51.9055 145.31 52.1399C145.192 52.3719 145.132 52.6241 145.132 52.8963V53.5178C145.132 53.8823 145.196 54.1925 145.324 54.4482C145.454 54.7038 145.636 54.8991 145.868 55.0341C146.1 55.1667 146.371 55.233 146.681 55.233C146.882 55.233 147.065 55.2045 147.231 55.1477C147.397 55.0885 147.54 55.0009 147.661 54.8849C147.782 54.7689 147.874 54.6257 147.938 54.4553L148.943 54.6364C148.862 54.9323 148.718 55.1915 148.51 55.4141C148.304 55.6342 148.044 55.8059 147.732 55.929C147.422 56.0497 147.068 56.1101 146.67 56.1101ZM152.835 56V50.5455H153.854V51.4332H153.922C154.035 51.1326 154.221 50.8982 154.479 50.7301C154.737 50.5597 155.046 50.4744 155.406 50.4744C155.77 50.4744 156.076 50.5597 156.322 50.7301C156.571 50.9006 156.754 51.1349 156.873 51.4332H156.929C157.06 51.142 157.267 50.91 157.551 50.7372C157.835 50.562 158.173 50.4744 158.566 50.4744C159.061 50.4744 159.465 50.6295 159.777 50.9396C160.092 51.2498 160.25 51.7173 160.25 52.3423V56H159.188V52.4418C159.188 52.0724 159.087 51.8049 158.886 51.6392C158.685 51.4735 158.444 51.3906 158.165 51.3906C157.819 51.3906 157.551 51.4972 157.359 51.7102C157.167 51.9209 157.071 52.192 157.071 52.5234V56H156.013V52.3743C156.013 52.0784 155.921 51.8404 155.736 51.6605C155.551 51.4806 155.311 51.3906 155.015 51.3906C154.814 51.3906 154.628 51.4439 154.458 51.5504C154.29 51.6546 154.154 51.8002 154.049 51.9872C153.948 52.1742 153.897 52.3909 153.897 52.6371V56H152.835ZM163.26 56.1207C162.914 56.1207 162.602 56.0568 162.323 55.929C162.043 55.7988 161.822 55.6106 161.659 55.3643C161.498 55.1181 161.417 54.8163 161.417 54.4588C161.417 54.151 161.476 53.8977 161.595 53.6989C161.713 53.5 161.873 53.3426 162.074 53.2266C162.275 53.1106 162.5 53.023 162.749 52.9638C162.997 52.9046 163.251 52.8596 163.509 52.8288C163.835 52.791 164.101 52.7602 164.304 52.7365C164.508 52.7105 164.656 52.669 164.748 52.6122C164.84 52.5554 164.887 52.4631 164.887 52.3352V52.3104C164.887 52.0002 164.799 51.7599 164.624 51.5895C164.451 51.419 164.193 51.3338 163.85 51.3338C163.492 51.3338 163.21 51.4131 163.004 51.5717C162.801 51.728 162.66 51.902 162.582 52.0938L161.584 51.8665C161.702 51.535 161.875 51.2675 162.102 51.0639C162.332 50.858 162.596 50.7088 162.894 50.6165C163.193 50.5218 163.506 50.4744 163.835 50.4744C164.053 50.4744 164.284 50.5005 164.528 50.5526C164.774 50.6023 165.004 50.6946 165.217 50.8295C165.432 50.9645 165.609 51.1574 165.746 51.4084C165.883 51.657 165.952 51.9801 165.952 52.3778V56H164.915V55.2543H164.872C164.804 55.3916 164.701 55.5265 164.563 55.6591C164.426 55.7917 164.25 55.9018 164.034 55.9893C163.819 56.0769 163.561 56.1207 163.26 56.1207ZM163.491 55.2685C163.785 55.2685 164.035 55.2105 164.244 55.0945C164.454 54.9785 164.614 54.8269 164.723 54.6399C164.834 54.4505 164.89 54.2481 164.89 54.0327V53.3295C164.852 53.3674 164.779 53.4029 164.67 53.4361C164.563 53.4669 164.441 53.4941 164.304 53.5178C164.167 53.5391 164.033 53.5592 163.903 53.5781C163.773 53.5947 163.664 53.6089 163.576 53.6207C163.37 53.6468 163.182 53.6906 163.012 53.7521C162.843 53.8137 162.709 53.9025 162.607 54.0185C162.507 54.1321 162.458 54.2836 162.458 54.473C162.458 54.7358 162.555 54.9347 162.749 55.0696C162.943 55.2022 163.19 55.2685 163.491 55.2685ZM167.366 56V50.5455H168.428V56H167.366ZM167.902 49.7038C167.718 49.7038 167.559 49.6423 167.426 49.5192C167.296 49.3937 167.231 49.2446 167.231 49.0717C167.231 48.8965 167.296 48.7474 167.426 48.6243C167.559 48.4988 167.718 48.4361 167.902 48.4361C168.087 48.4361 168.244 48.4988 168.375 48.6243C168.507 48.7474 168.574 48.8965 168.574 49.0717C168.574 49.2446 168.507 49.3937 168.375 49.5192C168.244 49.6423 168.087 49.7038 167.902 49.7038ZM173.944 51.8771L172.981 52.0476C172.941 51.9245 172.877 51.8073 172.79 51.696C172.704 51.5848 172.588 51.4936 172.442 51.4226C172.295 51.3516 172.111 51.3161 171.891 51.3161C171.59 51.3161 171.34 51.3835 171.138 51.5185C170.937 51.651 170.836 51.8227 170.836 52.0334C170.836 52.2157 170.904 52.3625 171.039 52.4737C171.174 52.585 171.392 52.6761 171.692 52.7472L172.559 52.946C173.061 53.062 173.435 53.2408 173.681 53.4822C173.927 53.7237 174.05 54.0374 174.05 54.4233C174.05 54.75 173.956 55.0412 173.766 55.2969C173.579 55.5502 173.318 55.7491 172.981 55.8935C172.648 56.0379 172.26 56.1101 171.82 56.1101C171.209 56.1101 170.711 55.9799 170.325 55.7195C169.939 55.4567 169.702 55.0838 169.615 54.6009L170.641 54.4446C170.705 54.7121 170.836 54.9145 171.035 55.0518C171.234 55.1868 171.493 55.2543 171.813 55.2543C172.161 55.2543 172.439 55.1821 172.648 55.0376C172.856 54.8909 172.96 54.7121 172.96 54.5014C172.96 54.331 172.896 54.1877 172.768 54.0717C172.643 53.9557 172.45 53.8681 172.189 53.8089L171.266 53.6065C170.757 53.4905 170.381 53.3059 170.137 53.0526C169.895 52.7992 169.775 52.4785 169.775 52.0902C169.775 51.7682 169.865 51.4865 170.045 51.245C170.224 51.0036 170.473 50.8153 170.79 50.6804C171.108 50.5431 171.471 50.4744 171.881 50.4744C172.47 50.4744 172.934 50.6023 173.273 50.858C173.611 51.1113 173.835 51.451 173.944 51.8771ZM178.926 48.7273V56H177.864V48.7273H178.926ZM180.354 56V50.5455H181.416V56H180.354ZM180.891 49.7038C180.706 49.7038 180.547 49.6423 180.415 49.5192C180.285 49.3937 180.219 49.2446 180.219 49.0717C180.219 48.8965 180.285 48.7474 180.415 48.6243C180.547 48.4988 180.706 48.4361 180.891 48.4361C181.075 48.4361 181.233 48.4988 181.363 48.6243C181.496 48.7474 181.562 48.8965 181.562 49.0717C181.562 49.2446 181.496 49.3937 181.363 49.5192C181.233 49.6423 181.075 49.7038 180.891 49.7038ZM182.845 56V50.5455H183.864V51.4332H183.931C184.045 51.1326 184.231 50.8982 184.489 50.7301C184.747 50.5597 185.056 50.4744 185.416 50.4744C185.78 50.4744 186.086 50.5597 186.332 50.7301C186.58 50.9006 186.764 51.1349 186.882 51.4332H186.939C187.069 51.142 187.276 50.91 187.561 50.7372C187.845 50.562 188.183 50.4744 188.576 50.4744C189.071 50.4744 189.475 50.6295 189.787 50.9396C190.102 51.2498 190.259 51.7173 190.259 52.3423V56H189.198V52.4418C189.198 52.0724 189.097 51.8049 188.896 51.6392C188.695 51.4735 188.454 51.3906 188.175 51.3906C187.829 51.3906 187.561 51.4972 187.369 51.7102C187.177 51.9209 187.081 52.192 187.081 52.5234V56H186.023V52.3743C186.023 52.0784 185.931 51.8404 185.746 51.6605C185.561 51.4806 185.321 51.3906 185.025 51.3906C184.824 51.3906 184.638 51.4439 184.468 51.5504C184.299 51.6546 184.163 51.8002 184.059 51.9872C183.957 52.1742 183.906 52.3909 183.906 52.6371V56H182.845ZM191.683 58.0455V50.5455H192.719V51.4297H192.808C192.87 51.3161 192.959 51.1847 193.075 51.0355C193.191 50.8864 193.352 50.7562 193.558 50.6449C193.763 50.5312 194.036 50.4744 194.374 50.4744C194.815 50.4744 195.208 50.5857 195.553 50.8082C195.899 51.0308 196.17 51.3516 196.366 51.7706C196.565 52.1896 196.665 52.6939 196.665 53.2834C196.665 53.8729 196.567 54.3783 196.37 54.7997C196.174 55.2187 195.904 55.5419 195.56 55.7692C195.217 55.9941 194.825 56.1065 194.385 56.1065C194.054 56.1065 193.782 56.0509 193.572 55.9396C193.363 55.8284 193.2 55.6982 193.082 55.549C192.963 55.3999 192.872 55.2673 192.808 55.1513H192.744V58.0455H191.683ZM192.723 53.2727C192.723 53.6562 192.779 53.9924 192.89 54.2812C193.001 54.5701 193.162 54.7962 193.373 54.9595C193.584 55.1205 193.842 55.201 194.147 55.201C194.464 55.201 194.729 55.117 194.942 54.9489C195.156 54.7784 195.317 54.5476 195.425 54.2564C195.537 53.9652 195.592 53.6373 195.592 53.2727C195.592 52.9129 195.538 52.5897 195.429 52.3033C195.322 52.0168 195.161 51.7907 194.946 51.625C194.733 51.4593 194.467 51.3764 194.147 51.3764C193.839 51.3764 193.579 51.4557 193.366 51.6143C193.155 51.773 192.995 51.9943 192.886 52.2784C192.777 52.5625 192.723 52.8939 192.723 53.2727ZM200.152 56.1101C199.641 56.1101 199.194 55.9929 198.813 55.7585C198.432 55.5241 198.136 55.1963 197.925 54.7749C197.715 54.3535 197.609 53.861 197.609 53.2976C197.609 52.7318 197.715 52.237 197.925 51.8132C198.136 51.3894 198.432 51.0604 198.813 50.826C199.194 50.5916 199.641 50.4744 200.152 50.4744C200.663 50.4744 201.11 50.5916 201.491 50.826C201.872 51.0604 202.168 51.3894 202.379 51.8132C202.589 52.237 202.695 52.7318 202.695 53.2976C202.695 53.861 202.589 54.3535 202.379 54.7749C202.168 55.1963 201.872 55.5241 201.491 55.7585C201.11 55.9929 200.663 56.1101 200.152 56.1101ZM200.156 55.2188C200.487 55.2188 200.762 55.1312 200.979 54.956C201.197 54.7808 201.358 54.5476 201.462 54.2564C201.569 53.9652 201.622 53.6444 201.622 53.294C201.622 52.946 201.569 52.6264 201.462 52.3352C201.358 52.0417 201.197 51.8061 200.979 51.6286C200.762 51.451 200.487 51.3622 200.156 51.3622C199.822 51.3622 199.545 51.451 199.325 51.6286C199.107 51.8061 198.945 52.0417 198.838 52.3352C198.734 52.6264 198.682 52.946 198.682 53.294C198.682 53.6444 198.734 53.9652 198.838 54.2564C198.945 54.5476 199.107 54.7808 199.325 54.956C199.545 55.1312 199.822 55.2188 200.156 55.2188ZM208.877 56.1101C208.34 56.1101 207.877 55.9953 207.489 55.7656C207.103 55.5336 206.804 55.2081 206.594 54.7891C206.385 54.3677 206.281 53.8741 206.281 53.3082C206.281 52.7495 206.385 52.2571 206.594 51.831C206.804 51.4048 207.098 51.0722 207.474 50.8331C207.853 50.594 208.296 50.4744 208.803 50.4744C209.11 50.4744 209.409 50.5253 209.697 50.6271C209.986 50.7289 210.246 50.8887 210.475 51.1065C210.705 51.3243 210.886 51.6072 211.018 51.9553C211.151 52.3009 211.217 52.7211 211.217 53.2159V53.5923H206.881V52.7969H210.177C210.177 52.5175 210.12 52.2701 210.006 52.0547C209.893 51.8369 209.733 51.6652 209.527 51.5398C209.323 51.4143 209.084 51.3516 208.81 51.3516C208.511 51.3516 208.251 51.425 208.028 51.5717C207.808 51.7161 207.638 51.9055 207.517 52.1399C207.399 52.3719 207.339 52.6241 207.339 52.8963V53.5178C207.339 53.8823 207.403 54.1925 207.531 54.4482C207.661 54.7038 207.843 54.8991 208.075 55.0341C208.307 55.1667 208.578 55.233 208.888 55.233C209.089 55.233 209.272 55.2045 209.438 55.1477C209.604 55.0885 209.747 55.0009 209.868 54.8849C209.989 54.7689 210.081 54.6257 210.145 54.4553L211.15 54.6364C211.069 54.9323 210.925 55.1915 210.717 55.4141C210.511 55.6342 210.251 55.8059 209.939 55.929C209.629 56.0497 209.275 56.1101 208.877 56.1101ZM217.339 56.1101C216.812 56.1101 216.357 55.9905 215.976 55.7514C215.597 55.5099 215.306 55.1773 215.102 54.7536C214.899 54.3298 214.797 53.8445 214.797 53.2976C214.797 52.7436 214.901 52.2547 215.109 51.831C215.318 51.4048 215.611 51.0722 215.99 50.8331C216.369 50.594 216.815 50.4744 217.329 50.4744C217.743 50.4744 218.112 50.5514 218.437 50.7053C218.761 50.8568 219.023 51.0698 219.222 51.3445C219.423 51.6191 219.542 51.9399 219.58 52.3068H218.547C218.49 52.0511 218.36 51.831 218.156 51.6463C217.955 51.4616 217.685 51.3693 217.347 51.3693C217.051 51.3693 216.791 51.4474 216.569 51.6037C216.349 51.7576 216.177 51.9777 216.054 52.2642C215.931 52.5483 215.869 52.8845 215.869 53.2727C215.869 53.6705 215.93 54.0137 216.05 54.3026C216.171 54.5914 216.342 54.8151 216.562 54.9737C216.784 55.1323 217.046 55.2116 217.347 55.2116C217.548 55.2116 217.73 55.175 217.893 55.1016C218.059 55.0258 218.198 54.9181 218.309 54.7784C218.423 54.6387 218.502 54.4706 218.547 54.2741H219.58C219.542 54.6269 219.428 54.9418 219.236 55.2188C219.044 55.4957 218.787 55.7135 218.465 55.8722C218.146 56.0308 217.77 56.1101 217.339 56.1101ZM221.778 52.7614V56H220.716V48.7273H221.763V51.4332H221.831C221.959 51.1397 222.154 50.9065 222.417 50.7337C222.68 50.5608 223.023 50.4744 223.447 50.4744C223.821 50.4744 224.147 50.5514 224.427 50.7053C224.708 50.8591 224.926 51.0888 225.08 51.3942C225.236 51.6972 225.314 52.076 225.314 52.5305V56H224.253V52.6584C224.253 52.2583 224.15 51.9482 223.944 51.728C223.738 51.5054 223.451 51.3942 223.084 51.3942C222.833 51.3942 222.608 51.4474 222.41 51.554C222.213 51.6605 222.058 51.8168 221.944 52.0227C221.833 52.2263 221.778 52.4725 221.778 52.7614ZM229.082 56.1101C228.545 56.1101 228.082 55.9953 227.694 55.7656C227.308 55.5336 227.01 55.2081 226.799 54.7891C226.59 54.3677 226.486 53.8741 226.486 53.3082C226.486 52.7495 226.59 52.2571 226.799 51.831C227.01 51.4048 227.303 51.0722 227.68 50.8331C228.058 50.594 228.501 50.4744 229.008 50.4744C229.315 50.4744 229.614 50.5253 229.903 50.6271C230.191 50.7289 230.451 50.8887 230.68 51.1065C230.91 51.3243 231.091 51.6072 231.224 51.9553C231.356 52.3009 231.422 52.7211 231.422 53.2159V53.5923H227.086V52.7969H230.382C230.382 52.5175 230.325 52.2701 230.211 52.0547C230.098 51.8369 229.938 51.6652 229.732 51.5398C229.528 51.4143 229.289 51.3516 229.015 51.3516C228.716 51.3516 228.456 51.425 228.233 51.5717C228.013 51.7161 227.843 51.9055 227.722 52.1399C227.604 52.3719 227.545 52.6241 227.545 52.8963V53.5178C227.545 53.8823 227.608 54.1925 227.736 54.4482C227.867 54.7038 228.048 54.8991 228.28 55.0341C228.512 55.1667 228.783 55.233 229.093 55.233C229.294 55.233 229.478 55.2045 229.643 55.1477C229.809 55.0885 229.952 55.0009 230.073 54.8849C230.194 54.7689 230.286 54.6257 230.35 54.4553L231.355 54.6364C231.274 54.9323 231.13 55.1915 230.922 55.4141C230.716 55.6342 230.456 55.8059 230.144 55.929C229.834 56.0497 229.48 56.1101 229.082 56.1101ZM232.6 56V50.5455H233.662V56H232.6ZM233.137 49.7038C232.952 49.7038 232.793 49.6423 232.661 49.5192C232.531 49.3937 232.466 49.2446 232.466 49.0717C232.466 48.8965 232.531 48.7474 232.661 48.6243C232.793 48.4988 232.952 48.4361 233.137 48.4361C233.321 48.4361 233.479 48.4988 233.609 48.6243C233.742 48.7474 233.808 48.8965 233.808 49.0717C233.808 49.2446 233.742 49.3937 233.609 49.5192C233.479 49.6423 233.321 49.7038 233.137 49.7038ZM235.091 56V50.5455H236.117V51.4119H236.174C236.273 51.1184 236.448 50.8875 236.699 50.7195C236.953 50.549 237.239 50.4638 237.559 50.4638C237.625 50.4638 237.703 50.4661 237.793 50.4709C237.885 50.4756 237.958 50.4815 238.01 50.4886V51.5043C237.967 51.4924 237.891 51.4794 237.782 51.4652C237.674 51.4486 237.565 51.4403 237.456 51.4403C237.205 51.4403 236.981 51.4936 236.785 51.6001C236.59 51.7043 236.437 51.8499 236.323 52.0369C236.209 52.2216 236.153 52.4323 236.153 52.669V56H235.091ZM241.031 56.1101C240.52 56.1101 240.073 55.9929 239.692 55.7585C239.311 55.5241 239.015 55.1963 238.804 54.7749C238.594 54.3535 238.488 53.861 238.488 53.2976C238.488 52.7318 238.594 52.237 238.804 51.8132C239.015 51.3894 239.311 51.0604 239.692 50.826C240.073 50.5916 240.52 50.4744 241.031 50.4744C241.542 50.4744 241.989 50.5916 242.37 50.826C242.751 51.0604 243.047 51.3894 243.257 51.8132C243.468 52.237 243.574 52.7318 243.574 53.2976C243.574 53.861 243.468 54.3535 243.257 54.7749C243.047 55.1963 242.751 55.5241 242.37 55.7585C241.989 55.9929 241.542 56.1101 241.031 56.1101ZM241.034 55.2188C241.366 55.2188 241.641 55.1312 241.858 54.956C242.076 54.7808 242.237 54.5476 242.341 54.2564C242.448 53.9652 242.501 53.6444 242.501 53.294C242.501 52.946 242.448 52.6264 242.341 52.3352C242.237 52.0417 242.076 51.8061 241.858 51.6286C241.641 51.451 241.366 51.3622 241.034 51.3622C240.701 51.3622 240.424 51.451 240.203 51.6286C239.986 51.8061 239.824 52.0417 239.717 52.3352C239.613 52.6264 239.561 52.946 239.561 53.294C239.561 53.6444 239.613 53.9652 239.717 54.2564C239.824 54.5476 239.986 54.7808 240.203 54.956C240.424 55.1312 240.701 55.2188 241.034 55.2188ZM248.846 51.8771L247.884 52.0476C247.843 51.9245 247.78 51.8073 247.692 51.696C247.607 51.5848 247.491 51.4936 247.344 51.4226C247.197 51.3516 247.014 51.3161 246.794 51.3161C246.493 51.3161 246.242 51.3835 246.041 51.5185C245.839 51.651 245.739 51.8227 245.739 52.0334C245.739 52.2157 245.806 52.3625 245.941 52.4737C246.076 52.585 246.294 52.6761 246.595 52.7472L247.461 52.946C247.963 53.062 248.337 53.2408 248.583 53.4822C248.829 53.7237 248.953 54.0374 248.953 54.4233C248.953 54.75 248.858 55.0412 248.669 55.2969C248.481 55.5502 248.22 55.7491 247.884 55.8935C247.55 56.0379 247.163 56.1101 246.722 56.1101C246.112 56.1101 245.613 55.9799 245.227 55.7195C244.842 55.4567 244.605 55.0838 244.517 54.6009L245.544 54.4446C245.607 54.7121 245.739 54.9145 245.938 55.0518C246.137 55.1868 246.396 55.2543 246.715 55.2543C247.063 55.2543 247.342 55.1821 247.55 55.0376C247.758 54.8909 247.862 54.7121 247.862 54.5014C247.862 54.331 247.798 54.1877 247.671 54.0717C247.545 53.9557 247.352 53.8681 247.092 53.8089L246.169 53.6065C245.66 53.4905 245.283 53.3059 245.039 53.0526C244.798 52.7992 244.677 52.4785 244.677 52.0902C244.677 51.7682 244.767 51.4865 244.947 51.245C245.127 51.0036 245.375 50.8153 245.693 50.6804C246.01 50.5431 246.373 50.4744 246.783 50.4744C247.372 50.4744 247.836 50.6023 248.175 50.858C248.513 51.1113 248.737 51.451 248.846 51.8771ZM252.418 56.1101C251.906 56.1101 251.46 55.9929 251.079 55.7585C250.698 55.5241 250.402 55.1963 250.191 54.7749C249.98 54.3535 249.875 53.861 249.875 53.2976C249.875 52.7318 249.98 52.237 250.191 51.8132C250.402 51.3894 250.698 51.0604 251.079 50.826C251.46 50.5916 251.906 50.4744 252.418 50.4744C252.929 50.4744 253.375 50.5916 253.756 50.826C254.138 51.0604 254.433 51.3894 254.644 51.8132C254.855 52.237 254.96 52.7318 254.96 53.2976C254.96 53.861 254.855 54.3535 254.644 54.7749C254.433 55.1963 254.138 55.5241 253.756 55.7585C253.375 55.9929 252.929 56.1101 252.418 56.1101ZM252.421 55.2188C252.753 55.2188 253.027 55.1312 253.245 54.956C253.463 54.7808 253.624 54.5476 253.728 54.2564C253.835 53.9652 253.888 53.6444 253.888 53.294C253.888 52.946 253.835 52.6264 253.728 52.3352C253.624 52.0417 253.463 51.8061 253.245 51.6286C253.027 51.451 252.753 51.3622 252.421 51.3622C252.087 51.3622 251.81 51.451 251.59 51.6286C251.372 51.8061 251.21 52.0417 251.104 52.3352C251 52.6264 250.947 52.946 250.947 53.294C250.947 53.6444 251 53.9652 251.104 54.2564C251.21 54.5476 251.372 54.7808 251.59 54.956C251.81 55.1312 252.087 55.2188 252.421 55.2188ZM256.845 56.0675C256.651 56.0675 256.484 55.9988 256.344 55.8615C256.205 55.7218 256.135 55.5537 256.135 55.3572C256.135 55.1631 256.205 54.9974 256.344 54.8601C256.484 54.7204 256.651 54.6506 256.845 54.6506C257.039 54.6506 257.206 54.7204 257.346 54.8601C257.485 54.9974 257.555 55.1631 257.555 55.3572C257.555 55.4875 257.522 55.607 257.456 55.7159C257.392 55.8224 257.307 55.9077 257.2 55.9716C257.094 56.0355 256.975 56.0675 256.845 56.0675Z" fill="black"/>
<path opacity="0.7" d="M315.676 24.1321C315.261 24.1321 314.888 24.0582 314.555 23.9105C314.226 23.7599 313.964 23.5384 313.771 23.2457C313.581 22.9531 313.486 22.5923 313.486 22.1634C313.486 21.794 313.554 21.4886 313.69 21.2472C313.827 21.0057 314.013 20.8125 314.249 20.6676C314.484 20.5227 314.75 20.4134 315.045 20.3395C315.344 20.2628 315.652 20.2074 315.97 20.1733C316.354 20.1335 316.665 20.098 316.903 20.0668C317.142 20.0327 317.315 19.9815 317.423 19.9134C317.534 19.8423 317.589 19.733 317.589 19.5852V19.5597C317.589 19.2386 317.494 18.9901 317.304 18.8139C317.114 18.6378 316.839 18.5497 316.482 18.5497C316.104 18.5497 315.804 18.6321 315.582 18.7969C315.364 18.9616 315.216 19.1562 315.139 19.3807L313.699 19.1761C313.813 18.7784 314 18.446 314.261 18.179C314.523 17.9091 314.842 17.7074 315.22 17.5739C315.598 17.4375 316.016 17.3693 316.473 17.3693C316.788 17.3693 317.102 17.4062 317.415 17.4801C317.727 17.554 318.013 17.6761 318.271 17.8466C318.53 18.0142 318.737 18.2429 318.893 18.5327C319.053 18.8224 319.132 19.1847 319.132 19.6193V24H317.649V23.1009H317.598C317.504 23.2827 317.372 23.4531 317.202 23.6122C317.034 23.7685 316.822 23.8949 316.567 23.9915C316.314 24.0852 316.017 24.1321 315.676 24.1321ZM316.077 22.9986C316.386 22.9986 316.655 22.9375 316.882 22.8153C317.109 22.6903 317.284 22.5256 317.406 22.321C317.531 22.1165 317.594 21.8935 317.594 21.652V20.8807C317.545 20.9205 317.463 20.9574 317.347 20.9915C317.233 21.0256 317.105 21.0554 316.963 21.081C316.821 21.1065 316.68 21.1293 316.541 21.1491C316.402 21.169 316.281 21.1861 316.179 21.2003C315.949 21.2315 315.743 21.2827 315.561 21.3537C315.379 21.4247 315.236 21.5241 315.131 21.652C315.026 21.777 314.973 21.9389 314.973 22.1378C314.973 22.4219 315.077 22.6364 315.284 22.7812C315.491 22.9261 315.756 22.9986 316.077 22.9986ZM323.53 26.5909C322.976 26.5909 322.5 26.5156 322.102 26.3651C321.705 26.2173 321.385 26.0185 321.143 25.7685C320.902 25.5185 320.734 25.2415 320.641 24.9375L322.03 24.6009C322.092 24.7287 322.183 24.8551 322.303 24.9801C322.422 25.108 322.582 25.2131 322.784 25.2955C322.989 25.3807 323.246 25.4233 323.555 25.4233C323.993 25.4233 324.355 25.3168 324.642 25.1037C324.929 24.8935 325.072 24.5469 325.072 24.0639V22.8239H324.996C324.916 22.983 324.8 23.1463 324.646 23.3139C324.496 23.4815 324.295 23.6222 324.045 23.7358C323.798 23.8494 323.487 23.9062 323.112 23.9062C322.609 23.9062 322.153 23.7884 321.744 23.5526C321.338 23.3139 321.014 22.9588 320.773 22.4872C320.534 22.0128 320.415 21.419 320.415 20.706C320.415 19.9872 320.534 19.3807 320.773 18.8864C321.014 18.3892 321.339 18.0128 321.749 17.7571C322.158 17.4986 322.614 17.3693 323.116 17.3693C323.5 17.3693 323.815 17.4347 324.062 17.5653C324.312 17.6932 324.511 17.848 324.659 18.0298C324.807 18.2088 324.919 18.3778 324.996 18.5369H325.081V17.4545H326.602V24.1065C326.602 24.6662 326.469 25.1293 326.202 25.4957C325.935 25.8622 325.57 26.1364 325.107 26.3182C324.643 26.5 324.118 26.5909 323.53 26.5909ZM323.543 22.696C323.869 22.696 324.148 22.6165 324.378 22.4574C324.608 22.2983 324.783 22.0696 324.902 21.7713C325.021 21.473 325.081 21.1151 325.081 20.6974C325.081 20.2855 325.021 19.9247 324.902 19.6151C324.786 19.3054 324.612 19.0653 324.382 18.8949C324.155 18.7216 323.875 18.6349 323.543 18.6349C323.199 18.6349 322.912 18.7244 322.682 18.9034C322.452 19.0824 322.278 19.3281 322.162 19.6406C322.045 19.9503 321.987 20.3026 321.987 20.6974C321.987 21.098 322.045 21.4489 322.162 21.75C322.281 22.0483 322.456 22.2812 322.686 22.4489C322.919 22.6136 323.205 22.696 323.543 22.696ZM331.038 24.1278C330.399 24.1278 329.845 23.9872 329.376 23.706C328.908 23.4247 328.544 23.0312 328.286 22.5256C328.03 22.0199 327.902 21.429 327.902 20.7528C327.902 20.0767 328.03 19.4844 328.286 18.9759C328.544 18.4673 328.908 18.0724 329.376 17.7912C329.845 17.5099 330.399 17.3693 331.038 17.3693C331.678 17.3693 332.232 17.5099 332.7 17.7912C333.169 18.0724 333.531 18.4673 333.787 18.9759C334.045 19.4844 334.175 20.0767 334.175 20.7528C334.175 21.429 334.045 22.0199 333.787 22.5256C333.531 23.0312 333.169 23.4247 332.7 23.706C332.232 23.9872 331.678 24.1278 331.038 24.1278ZM331.047 22.892C331.393 22.892 331.683 22.7969 331.916 22.6065C332.149 22.4134 332.322 22.1548 332.436 21.831C332.553 21.5071 332.611 21.1463 332.611 20.7486C332.611 20.348 332.553 19.9858 332.436 19.6619C332.322 19.3352 332.149 19.0753 331.916 18.8821C331.683 18.6889 331.393 18.5923 331.047 18.5923C330.692 18.5923 330.396 18.6889 330.161 18.8821C329.928 19.0753 329.753 19.3352 329.636 19.6619C329.523 19.9858 329.466 20.348 329.466 20.7486C329.466 21.1463 329.523 21.5071 329.636 21.831C329.753 22.1548 329.928 22.4134 330.161 22.6065C330.396 22.7969 330.692 22.892 331.047 22.892ZM335.484 24V17.4545H336.98V18.5455H337.048C337.167 18.1676 337.372 17.8764 337.662 17.6719C337.954 17.4645 338.288 17.3608 338.663 17.3608C338.748 17.3608 338.843 17.3651 338.949 17.3736C339.056 17.3793 339.146 17.3892 339.217 17.4034V18.8224C339.152 18.7997 339.048 18.7798 338.906 18.7628C338.767 18.7429 338.632 18.733 338.501 18.733C338.22 18.733 337.967 18.794 337.743 18.9162C337.521 19.0355 337.346 19.2017 337.218 19.4148C337.091 19.6278 337.027 19.8736 337.027 20.152V24H335.484ZM342.008 24.1321C341.593 24.1321 341.22 24.0582 340.887 23.9105C340.558 23.7599 340.297 23.5384 340.103 23.2457C339.913 22.9531 339.818 22.5923 339.818 22.1634C339.818 21.794 339.886 21.4886 340.022 21.2472C340.159 21.0057 340.345 20.8125 340.581 20.6676C340.816 20.5227 341.082 20.4134 341.377 20.3395C341.676 20.2628 341.984 20.2074 342.302 20.1733C342.686 20.1335 342.997 20.098 343.235 20.0668C343.474 20.0327 343.647 19.9815 343.755 19.9134C343.866 19.8423 343.922 19.733 343.922 19.5852V19.5597C343.922 19.2386 343.826 18.9901 343.636 18.8139C343.446 18.6378 343.172 18.5497 342.814 18.5497C342.436 18.5497 342.136 18.6321 341.914 18.7969C341.696 18.9616 341.548 19.1562 341.471 19.3807L340.031 19.1761C340.145 18.7784 340.332 18.446 340.593 18.179C340.855 17.9091 341.174 17.7074 341.552 17.5739C341.93 17.4375 342.348 17.3693 342.805 17.3693C343.12 17.3693 343.434 17.4062 343.747 17.4801C344.059 17.554 344.345 17.6761 344.603 17.8466C344.862 18.0142 345.069 18.2429 345.225 18.5327C345.385 18.8224 345.464 19.1847 345.464 19.6193V24H343.981V23.1009H343.93C343.836 23.2827 343.704 23.4531 343.534 23.6122C343.366 23.7685 343.154 23.8949 342.899 23.9915C342.646 24.0852 342.349 24.1321 342.008 24.1321ZM342.409 22.9986C342.718 22.9986 342.987 22.9375 343.214 22.8153C343.441 22.6903 343.616 22.5256 343.738 22.321C343.863 22.1165 343.926 21.8935 343.926 21.652V20.8807C343.877 20.9205 343.795 20.9574 343.679 20.9915C343.565 21.0256 343.437 21.0554 343.295 21.081C343.153 21.1065 343.012 21.1293 342.873 21.1491C342.734 21.169 342.613 21.1861 342.511 21.2003C342.281 21.2315 342.075 21.2827 341.893 21.3537C341.711 21.4247 341.568 21.5241 341.463 21.652C341.358 21.777 341.305 21.9389 341.305 22.1378C341.305 22.4219 341.409 22.6364 341.616 22.7812C341.824 22.9261 342.088 22.9986 342.409 22.9986Z" fill="black"/>
<path d="M46.0404 21.3987L42.4404 19.4996C39.2796 17.8338 37.6992 17 36 17C34.3008 17 32.7204 17.832 29.5596 19.4996L28.9818 19.8053L45.0432 29.0277L52.272 25.3923C51.1092 24.0683 49.2336 23.079 46.0404 21.3951M53.5464 27.787L46.35 31.4043V36.8955C46.35 37.2553 46.2078 37.6003 45.9546 37.8547C45.7014 38.1091 45.358 38.252 45 38.252C44.642 38.252 44.2986 38.1091 44.0454 37.8547C43.7922 37.6003 43.65 37.2553 43.65 36.8955V32.7609L37.35 35.926V53C38.6424 52.6762 40.113 51.9021 42.4404 50.674L46.0404 48.7749C49.9122 46.7329 51.849 45.7128 52.9254 43.877C54 42.043 54 39.7586 54 35.1953V34.9837C54 31.5599 54 29.4184 53.5464 27.787ZM34.65 53V35.926L18.4536 27.787C18 29.4184 18 31.5599 18 34.9801V35.1917C18 39.7586 18 42.043 19.0746 43.877C20.151 45.7128 22.0878 46.7347 25.9596 48.7767L29.5596 50.674C31.887 51.9021 33.3576 52.6762 34.65 53ZM19.728 25.3941L36 33.5693L42.1398 30.4855L26.145 21.301L25.9596 21.3987C22.7682 23.0808 20.8908 24.0701 19.728 25.3959" fill="#E30613"/>
</svg>
